<?xml version="1.0" encoding="UTF-8"?>
<svg version="1.1" xmlns="http://www.w3.org/2000/svg" width="447" height="186">
<path d="M0 0 C0.69847194 0.00262701 1.39694389 0.00525403 2.11658165 0.00796065 C2.85555479 0.0068068 3.59452794 0.00565296 4.35589421 0.00446415 C6.86368717 0.00179047 9.37141755 0.00632577 11.87920734 0.01075396 C13.68260831 0.01031841 15.48600922 0.00944381 17.28940979 0.00816479 C22.26964619 0.00591662 27.24986131 0.00994549 32.230095 0.01494285 C37.59140904 0.01924258 42.95272178 0.01780127 48.31403705 0.01704058 C57.61105802 0.01651504 66.908072 0.01966497 76.20509121 0.02527842 C89.64718788 0.03338937 103.08928116 0.03600822 116.53138002 0.03726641 C138.33783036 0.03945757 160.14427697 0.04611938 181.95072529 0.05556902 C203.13952718 0.06474149 224.32832806 0.07182313 245.51713154 0.07607684 C246.82218588 0.07633956 248.12724023 0.07660228 249.47184167 0.07687297 C256.01861017 0.07817796 262.56537867 0.07944168 269.11214718 0.08068487 C323.46434906 0.09105947 377.81654403 0.10949884 432.16874287 0.13100848 C432.16874287 36.10100848 432.16874287 72.07100848 432.16874287 109.13100848 C359.56874287 109.13100848 286.96874287 109.13100848 212.16874287 109.13100848 C212.16874287 106.49100848 212.16874287 103.85100848 212.16874287 101.13100848 C282.12874287 101.13100848 352.08874287 101.13100848 424.16874287 101.13100848 C424.16874287 70.44100848 424.16874287 39.75100848 424.16874287 8.13100848 C284.90874287 8.13100848 145.64874287 8.13100848 2.16874287 8.13100848 C2.16874287 59.94100848 2.16874287 111.75100848 2.16874287 165.13100848 C53.97874287 164.80100848 105.78874287 164.47100848 159.16874287 164.13100848 C159.16874287 117.93100848 159.16874287 71.73100848 159.16874287 24.13100848 C112.63874287 24.13100848 66.10874287 24.13100848 18.16874287 24.13100848 C18.16874287 65.38100848 18.16874287 106.63100848 18.16874287 149.13100848 C59.41874287 149.13100848 100.66874287 149.13100848 143.16874287 149.13100848 C143.16874287 113.16100848 143.16874287 77.19100848 143.16874287 40.13100848 C107.19874287 40.13100848 71.22874287 40.13100848 34.16874287 40.13100848 C34.16874287 70.82100848 34.16874287 101.51100848 34.16874287 133.13100848 C64.85874287 133.13100848 95.54874287 133.13100848 127.16874287 133.13100848 C127.16874287 107.72100848 127.16874287 82.31100848 127.16874287 56.13100848 C101.75874287 56.13100848 76.34874287 56.13100848 50.16874287 56.13100848 C50.16874287 76.26100848 50.16874287 96.39100848 50.16874287 117.13100848 C70.29874287 117.13100848 90.42874287 117.13100848 111.16874287 117.13100848 C111.16874287 102.28100848 111.16874287 87.43100848 111.16874287 72.13100848 C96.31874287 72.13100848 81.46874287 72.13100848 66.16874287 72.13100848 C66.16874287 84.34100848 66.16874287 96.55100848 66.16874287 109.13100848 C63.52874287 109.13100848 60.88874287 109.13100848 58.16874287 109.13100848 C58.16874287 94.28100848 58.16874287 79.43100848 58.16874287 64.13100848 C78.29874287 64.13100848 98.42874287 64.13100848 119.16874287 64.13100848 C119.16874287 84.26100848 119.16874287 104.39100848 119.16874287 125.13100848 C100.24184139 125.17111729 100.24184139 125.17111729 92.20194599 125.1798366 C86.70624938 125.18582485 81.21056935 125.19292467 75.71488544 125.20644793 C71.28640598 125.21727748 66.8579443 125.22328545 62.42945263 125.22588572 C60.73608659 125.22773985 59.04272157 125.23136023 57.34936306 125.23673853 C54.98583055 125.24394987 52.62237242 125.24499938 50.25883076 125.24453387 C49.5517699 125.24812914 48.84470905 125.25172442 48.11622211 125.25542864 C43.28279503 125.24506064 43.28279503 125.24506064 42.16874287 124.13100848 C42.07379384 121.75795752 42.04316275 119.41426081 42.05521747 117.04092059 C42.05509694 116.28747394 42.0549764 115.53402729 42.05485222 114.75774893 C42.05560129 112.30792046 42.06322926 109.85816716 42.07108662 107.40835223 C42.07255605 105.90025527 42.07357675 104.3921578 42.07413837 102.88406023 C42.07939107 97.27886856 42.09335215 91.67368779 42.10624287 86.06850848 C42.13718037 67.28944598 42.13718037 67.28944598 42.16874287 48.13100848 C72.85874287 48.13100848 103.54874287 48.13100848 135.16874287 48.13100848 C135.16874287 78.82100848 135.16874287 109.51100848 135.16874287 141.13100848 C108.2557318 141.17111729 108.2557318 141.17111729 96.82694599 141.1798366 C89.01354394 141.18582578 81.20015356 141.19292805 73.38676044 141.20644793 C67.09093127 141.21727432 60.7951146 141.22328478 54.49927685 141.22588572 C52.09139342 141.22774042 49.68351072 141.23136187 47.27563259 141.23673853 C43.91585 141.24394567 40.55611977 141.24499956 37.19633076 141.24453387 C36.19004627 141.24812914 35.18376179 141.25172442 34.14698383 141.25542864 C33.23688053 141.25405398 32.32677723 141.25267931 31.38909504 141.25126299 C30.59358769 141.25218479 29.79808035 141.25310658 28.97846672 141.2540563 C27.16874287 141.13100848 27.16874287 141.13100848 26.16874287 140.13100848 C26.07327356 138.72689531 26.04685758 137.31801039 26.04848835 135.9106563 C26.04711085 135.00245355 26.04573336 134.0942508 26.04431412 133.15852675 C26.04971128 131.6462492 26.04971128 131.6462492 26.05521747 130.10342059 C26.05509694 129.032784 26.0549764 127.96214741 26.05485222 126.85906729 C26.05560171 123.37547485 26.06323161 119.89193516 26.07108662 116.40835223 C26.07255592 114.26483849 26.0735767 112.1213244 26.07413837 109.97781023 C26.07939258 102.00803753 26.09335364 94.03827249 26.10624287 86.06850848 C26.12686787 68.26913348 26.14749287 50.46975848 26.16874287 32.13100848 C67.41874287 32.13100848 108.66874287 32.13100848 151.16874287 32.13100848 C151.19968037 62.79007098 151.19968037 62.79007098 151.23124287 94.06850848 C151.24034687 100.53307635 151.24945087 106.99764422 151.25883076 113.65810809 C151.26334736 121.52468523 151.26334736 121.52468523 151.26418659 125.20206866 C151.26572675 127.78204389 151.26888391 130.36197099 151.27431843 132.94193682 C151.28242041 136.83951862 151.28265044 140.73707996 151.28226826 144.63467059 C151.28586636 145.79274942 151.28946447 146.95082825 151.29317161 148.14400038 C151.29179412 149.18654762 151.29041662 150.22909485 151.28899738 151.30323443 C151.29038007 152.6734797 151.29038007 152.6734797 151.29179069 154.07140669 C151.16874287 156.13100848 151.16874287 156.13100848 150.16874287 157.13100848 C148.37411518 157.22958167 146.57557261 157.25732959 144.77823994 157.25799212 C143.02399456 157.26222185 143.02399456 157.26222185 141.23430988 157.26653704 C139.93972355 157.26451281 138.64513721 157.26248858 137.31132099 157.26040301 C135.94335482 157.26175703 134.57538901 157.26353697 133.2074239 157.26571307 C129.48231912 157.27028728 125.75724193 157.26849789 122.03213665 157.26533398 C118.14216509 157.26281032 114.25219596 157.26514793 110.36222431 157.26672015 C103.82848788 157.26854182 97.29476274 157.26613558 90.76102802 157.26137957 C83.19646604 157.25593695 75.631931 157.25769961 68.06736967 157.26320598 C61.58415802 157.26773716 55.10095451 157.26838763 48.61774179 157.26576731 C44.74053701 157.26420456 40.86334491 157.2640107 36.98614094 157.26730379 C33.341867 157.27018258 29.69762796 157.26820668 26.05335781 157.26240954 C24.06996432 157.26044636 22.08656789 157.26343578 20.10317585 157.26653704 C18.93367893 157.26371722 17.76418201 157.26089739 16.5592458 157.25799212 C15.53643261 157.25761509 14.51361942 157.25723807 13.4598119 157.25684962 C11.16874287 157.13100848 11.16874287 157.13100848 10.16874287 156.13100848 C10.07232789 154.32139976 10.04686889 152.50798719 10.04848835 150.69581255 C10.04711085 149.51892084 10.04573336 148.34202912 10.04431412 147.12947401 C10.04791222 145.82150138 10.05151033 144.51352875 10.05521747 143.16592059 C10.05552359 141.76407564 10.0553907 140.36223053 10.05485222 138.96038565 C10.05462572 135.19377331 10.06043701 131.42719251 10.06746265 127.66058764 C10.07314208 124.13091078 10.07342493 120.60124174 10.07413837 117.07156023 C10.07939339 106.73720544 10.09335444 96.40285657 10.10624287 86.06850848 C10.12686787 62.98913348 10.14749287 39.90975848 10.16874287 16.13100848 C89.36874287 15.63600848 89.36874287 15.63600848 170.16874287 15.13100848 C169.83874287 15.79100848 169.50874287 16.45100848 169.16874287 17.13100848 C168.50874287 17.13100848 167.84874287 17.13100848 167.16874287 17.13100848 C167.16874287 68.28100848 167.16874287 119.43100848 167.16874287 172.13100848 C124.07584306 172.17131151 124.07584306 172.17131151 106.07694599 172.1798366 C93.62812997 172.18578011 81.1793207 172.19278321 68.73051044 172.20644793 C59.66584013 172.21639326 50.60117527 172.22286154 41.53649965 172.22509697 C36.73371679 172.22640434 31.93094953 172.22949181 27.12817165 172.23673853 C22.61307487 172.24349637 18.09800019 172.24562592 13.58289883 172.24411616 C11.92077106 172.24439259 10.25864261 172.24639911 8.5965192 172.25021395 C6.33724594 172.25514752 4.07805753 172.25400803 1.81878254 172.25126299 C0.55131719 172.25218479 -0.71614817 172.25310658 -2.02202156 172.2540563 C-4.83125713 172.13100848 -4.83125713 172.13100848 -5.83125713 171.13100848 C-5.93043926 168.94371924 -5.95758112 166.75316235 -5.95824078 164.56362566 C-5.95980077 163.8692729 -5.96136076 163.17492014 -5.96296802 162.45952639 C-5.96698024 160.1156243 -5.96378753 157.77178613 -5.96065167 155.42788348 C-5.96200561 153.75450255 -5.9637855 152.08112193 -5.96596172 150.40774187 C-5.97053689 145.85002068 -5.96874616 141.29232201 -5.96558264 136.73460039 C-5.96305947 131.97578526 -5.96539646 127.21697212 -5.9669688 122.45815691 C-5.96879063 114.46498931 -5.96638386 106.47183093 -5.96162823 98.47866473 C-5.95618558 89.22362562 -5.95794823 79.96860854 -5.96345463 70.71356997 C-5.96798541 62.78238773 -5.96863649 54.85121213 -5.96601596 46.92002901 C-5.96445299 42.17650905 -5.96425997 37.43299946 -5.96755245 32.68948016 C-5.97043065 28.23099895 -5.96845643 23.77254628 -5.9626582 19.31406817 C-5.96133032 17.67290451 -5.96172518 16.03173847 -5.96392086 14.39057574 C-5.9666313 12.15981462 -5.96325258 9.9291464 -5.95824078 7.69839129 C-5.95786375 6.44697344 -5.95748673 5.1955556 -5.95709828 3.906216 C-5.74827214 -0.69908129 -4.16710683 0.01489653 0 0 Z " fill="#ECECEC" transform="translate(10.83125713467598,5.868991523981094)"/>
<path d="M0 0 C0.69847194 0.00262701 1.39694389 0.00525403 2.11658165 0.00796065 C2.85555479 0.0068068 3.59452794 0.00565296 4.35589421 0.00446415 C6.86368717 0.00179047 9.37141755 0.00632577 11.87920734 0.01075396 C13.68260831 0.01031841 15.48600922 0.00944381 17.28940979 0.00816479 C22.26964619 0.00591662 27.24986131 0.00994549 32.230095 0.01494285 C37.59140904 0.01924258 42.95272178 0.01780127 48.31403705 0.01704058 C57.61105802 0.01651504 66.908072 0.01966497 76.20509121 0.02527842 C89.64718788 0.03338937 103.08928116 0.03600822 116.53138002 0.03726641 C138.33783036 0.03945757 160.14427697 0.04611938 181.95072529 0.05556902 C203.13952718 0.06474149 224.32832806 0.07182313 245.51713154 0.07607684 C246.82218588 0.07633956 248.12724023 0.07660228 249.47184167 0.07687297 C256.01861017 0.07817796 262.56537867 0.07944168 269.11214718 0.08068487 C323.46434906 0.09105947 377.81654403 0.10949884 432.16874287 0.13100848 C432.16874287 36.10100848 432.16874287 72.07100848 432.16874287 109.13100848 C359.56874287 109.13100848 286.96874287 109.13100848 212.16874287 109.13100848 C212.16874287 106.49100848 212.16874287 103.85100848 212.16874287 101.13100848 C282.12874287 101.13100848 352.08874287 101.13100848 424.16874287 101.13100848 C424.16874287 70.44100848 424.16874287 39.75100848 424.16874287 8.13100848 C284.90874287 8.13100848 145.64874287 8.13100848 2.16874287 8.13100848 C2.16874287 59.94100848 2.16874287 111.75100848 2.16874287 165.13100848 C53.97874287 164.80100848 105.78874287 164.47100848 159.16874287 164.13100848 C159.16874287 117.93100848 159.16874287 71.73100848 159.16874287 24.13100848 C112.63874287 24.13100848 66.10874287 24.13100848 18.16874287 24.13100848 C18.16874287 65.38100848 18.16874287 106.63100848 18.16874287 149.13100848 C59.41874287 149.13100848 100.66874287 149.13100848 143.16874287 149.13100848 C143.16874287 113.16100848 143.16874287 77.19100848 143.16874287 40.13100848 C107.19874287 40.13100848 71.22874287 40.13100848 34.16874287 40.13100848 C34.16874287 70.82100848 34.16874287 101.51100848 34.16874287 133.13100848 C64.85874287 133.13100848 95.54874287 133.13100848 127.16874287 133.13100848 C127.16874287 107.72100848 127.16874287 82.31100848 127.16874287 56.13100848 C101.75874287 56.13100848 76.34874287 56.13100848 50.16874287 56.13100848 C50.16874287 76.26100848 50.16874287 96.39100848 50.16874287 117.13100848 C70.29874287 117.13100848 90.42874287 117.13100848 111.16874287 117.13100848 C111.16874287 102.28100848 111.16874287 87.43100848 111.16874287 72.13100848 C96.31874287 72.13100848 81.46874287 72.13100848 66.16874287 72.13100848 C66.16874287 84.34100848 66.16874287 96.55100848 66.16874287 109.13100848 C63.52874287 109.13100848 60.88874287 109.13100848 58.16874287 109.13100848 C58.16874287 94.28100848 58.16874287 79.43100848 58.16874287 64.13100848 C78.29874287 64.13100848 98.42874287 64.13100848 119.16874287 64.13100848 C119.16874287 84.26100848 119.16874287 104.39100848 119.16874287 125.13100848 C100.24184139 125.17111729 100.24184139 125.17111729 92.20194599 125.1798366 C86.70624938 125.18582485 81.21056935 125.19292467 75.71488544 125.20644793 C71.28640598 125.21727748 66.8579443 125.22328545 62.42945263 125.22588572 C60.73608659 125.22773985 59.04272157 125.23136023 57.34936306 125.23673853 C54.98583055 125.24394987 52.62237242 125.24499938 50.25883076 125.24453387 C49.5517699 125.24812914 48.84470905 125.25172442 48.11622211 125.25542864 C43.28279503 125.24506064 43.28279503 125.24506064 42.16874287 124.13100848 C42.07379384 121.75795752 42.04316275 119.41426081 42.05521747 117.04092059 C42.05509694 116.28747394 42.0549764 115.53402729 42.05485222 114.75774893 C42.05560129 112.30792046 42.06322926 109.85816716 42.07108662 107.40835223 C42.07255605 105.90025527 42.07357675 104.3921578 42.07413837 102.88406023 C42.07939107 97.27886856 42.09335215 91.67368779 42.10624287 86.06850848 C42.13718037 67.28944598 42.13718037 67.28944598 42.16874287 48.13100848 C72.85874287 48.13100848 103.54874287 48.13100848 135.16874287 48.13100848 C135.16874287 78.82100848 135.16874287 109.51100848 135.16874287 141.13100848 C108.2557318 141.17111729 108.2557318 141.17111729 96.82694599 141.1798366 C89.01354394 141.18582578 81.20015356 141.19292805 73.38676044 141.20644793 C67.09093127 141.21727432 60.7951146 141.22328478 54.49927685 141.22588572 C52.09139342 141.22774042 49.68351072 141.23136187 47.27563259 141.23673853 C43.91585 141.24394567 40.55611977 141.24499956 37.19633076 141.24453387 C36.19004627 141.24812914 35.18376179 141.25172442 34.14698383 141.25542864 C33.23688053 141.25405398 32.32677723 141.25267931 31.38909504 141.25126299 C30.59358769 141.25218479 29.79808035 141.25310658 28.97846672 141.2540563 C27.16874287 141.13100848 27.16874287 141.13100848 26.16874287 140.13100848 C26.07327356 138.72689531 26.04685758 137.31801039 26.04848835 135.9106563 C26.04711085 135.00245355 26.04573336 134.0942508 26.04431412 133.15852675 C26.04971128 131.6462492 26.04971128 131.6462492 26.05521747 130.10342059 C26.05509694 129.032784 26.0549764 127.96214741 26.05485222 126.85906729 C26.05560171 123.37547485 26.06323161 119.89193516 26.07108662 116.40835223 C26.07255592 114.26483849 26.0735767 112.1213244 26.07413837 109.97781023 C26.07939258 102.00803753 26.09335364 94.03827249 26.10624287 86.06850848 C26.12686787 68.26913348 26.14749287 50.46975848 26.16874287 32.13100848 C67.41874287 32.13100848 108.66874287 32.13100848 151.16874287 32.13100848 C151.19968037 62.79007098 151.19968037 62.79007098 151.23124287 94.06850848 C151.24034687 100.53307635 151.24945087 106.99764422 151.25883076 113.65810809 C151.26334736 121.52468523 151.26334736 121.52468523 151.26418659 125.20206866 C151.26572675 127.78204389 151.26888391 130.36197099 151.27431843 132.94193682 C151.28242041 136.83951862 151.28265044 140.73707996 151.28226826 144.63467059 C151.28586636 145.79274942 151.28946447 146.95082825 151.29317161 148.14400038 C151.29179412 149.18654762 151.29041662 150.22909485 151.28899738 151.30323443 C151.29038007 152.6734797 151.29038007 152.6734797 151.29179069 154.07140669 C151.16874287 156.13100848 151.16874287 156.13100848 150.16874287 157.13100848 C148.37411518 157.22958167 146.57557261 157.25732959 144.77823994 157.25799212 C143.02399456 157.26222185 143.02399456 157.26222185 141.23430988 157.26653704 C139.93972355 157.26451281 138.64513721 157.26248858 137.31132099 157.26040301 C135.94335482 157.26175703 134.57538901 157.26353697 133.2074239 157.26571307 C129.48231912 157.27028728 125.75724193 157.26849789 122.03213665 157.26533398 C118.14216509 157.26281032 114.25219596 157.26514793 110.36222431 157.26672015 C103.82848788 157.26854182 97.29476274 157.26613558 90.76102802 157.26137957 C83.19646604 157.25593695 75.631931 157.25769961 68.06736967 157.26320598 C61.58415802 157.26773716 55.10095451 157.26838763 48.61774179 157.26576731 C44.74053701 157.26420456 40.86334491 157.2640107 36.98614094 157.26730379 C33.341867 157.27018258 29.69762796 157.26820668 26.05335781 157.26240954 C24.06996432 157.26044636 22.08656789 157.26343578 20.10317585 157.26653704 C18.93367893 157.26371722 17.76418201 157.26089739 16.5592458 157.25799212 C15.53643261 157.25761509 14.51361942 157.25723807 13.4598119 157.25684962 C11.16874287 157.13100848 11.16874287 157.13100848 10.16874287 156.13100848 C10.07232789 154.32139976 10.04686889 152.50798719 10.04848835 150.69581255 C10.04711085 149.51892084 10.04573336 148.34202912 10.04431412 147.12947401 C10.04791222 145.82150138 10.05151033 144.51352875 10.05521747 143.16592059 C10.05552359 141.76407564 10.0553907 140.36223053 10.05485222 138.96038565 C10.05462572 135.19377331 10.06043701 131.42719251 10.06746265 127.66058764 C10.07314208 124.13091078 10.07342493 120.60124174 10.07413837 117.07156023 C10.07939339 106.73720544 10.09335444 96.40285657 10.10624287 86.06850848 C10.12686787 62.98913348 10.14749287 39.90975848 10.16874287 16.13100848 C89.36874287 15.63600848 89.36874287 15.63600848 170.16874287 15.13100848 C169.83874287 15.79100848 169.50874287 16.45100848 169.16874287 17.13100848 C168.50874287 17.13100848 167.84874287 17.13100848 167.16874287 17.13100848 C167.16874287 68.28100848 167.16874287 119.43100848 167.16874287 172.13100848 C124.07584306 172.17131151 124.07584306 172.17131151 106.07694599 172.1798366 C93.62812997 172.18578011 81.1793207 172.19278321 68.73051044 172.20644793 C59.66584013 172.21639326 50.60117527 172.22286154 41.53649965 172.22509697 C36.73371679 172.22640434 31.93094953 172.22949181 27.12817165 172.23673853 C22.61307487 172.24349637 18.09800019 172.24562592 13.58289883 172.24411616 C11.92077106 172.24439259 10.25864261 172.24639911 8.5965192 172.25021395 C6.33724594 172.25514752 4.07805753 172.25400803 1.81878254 172.25126299 C0.55131719 172.25218479 -0.71614817 172.25310658 -2.02202156 172.2540563 C-4.83125713 172.13100848 -4.83125713 172.13100848 -5.83125713 171.13100848 C-5.93043926 168.94371924 -5.95758112 166.75316235 -5.95824078 164.56362566 C-5.95980077 163.8692729 -5.96136076 163.17492014 -5.96296802 162.45952639 C-5.96698024 160.1156243 -5.96378753 157.77178613 -5.96065167 155.42788348 C-5.96200561 153.75450255 -5.9637855 152.08112193 -5.96596172 150.40774187 C-5.97053689 145.85002068 -5.96874616 141.29232201 -5.96558264 136.73460039 C-5.96305947 131.97578526 -5.96539646 127.21697212 -5.9669688 122.45815691 C-5.96879063 114.46498931 -5.96638386 106.47183093 -5.96162823 98.47866473 C-5.95618558 89.22362562 -5.95794823 79.96860854 -5.96345463 70.71356997 C-5.96798541 62.78238773 -5.96863649 54.85121213 -5.96601596 46.92002901 C-5.96445299 42.17650905 -5.96425997 37.43299946 -5.96755245 32.68948016 C-5.97043065 28.23099895 -5.96845643 23.77254628 -5.9626582 19.31406817 C-5.96133032 17.67290451 -5.96172518 16.03173847 -5.96392086 14.39057574 C-5.9666313 12.15981462 -5.96325258 9.9291464 -5.95824078 7.69839129 C-5.95786375 6.44697344 -5.95748673 5.1955556 -5.95709828 3.906216 C-5.74827214 -0.69908129 -4.16710683 0.01489653 0 0 Z M-3.83125713 1.13100848 C-3.83125713 57.23100848 -3.83125713 113.33100848 -3.83125713 171.13100848 C52.26874287 171.13100848 108.36874287 171.13100848 166.16874287 171.13100848 C166.16874287 120.31100848 166.16874287 69.49100848 166.16874287 17.13100848 C115.34874287 17.13100848 64.52874287 17.13100848 12.16874287 17.13100848 C12.16874287 62.67100848 12.16874287 108.21100848 12.16874287 155.13100848 C57.37874287 155.13100848 102.58874287 155.13100848 149.16874287 155.13100848 C149.16874287 114.87100848 149.16874287 74.61100848 149.16874287 33.13100848 C109.23874287 33.13100848 69.30874287 33.13100848 28.16874287 33.13100848 C28.16874287 68.11100848 28.16874287 103.09100848 28.16874287 139.13100848 C63.14874287 139.13100848 98.12874287 139.13100848 134.16874287 139.13100848 C134.16874287 109.43100848 134.16874287 79.73100848 134.16874287 49.13100848 C104.13874287 49.13100848 74.10874287 49.13100848 43.16874287 49.13100848 C43.16874287 73.55100848 43.16874287 97.97100848 43.16874287 123.13100848 C67.91874287 123.13100848 92.66874287 123.13100848 118.16874287 123.13100848 C118.16874287 103.99100848 118.16874287 84.85100848 118.16874287 65.13100848 C98.69874287 65.13100848 79.22874287 65.13100848 59.16874287 65.13100848 C59.16874287 78.99100848 59.16874287 92.85100848 59.16874287 107.13100848 C60.81874287 107.13100848 62.46874287 107.13100848 64.16874287 107.13100848 C64.16874287 94.92100848 64.16874287 82.71100848 64.16874287 70.13100848 C80.33874287 70.13100848 96.50874287 70.13100848 113.16874287 70.13100848 C113.16874287 85.97100848 113.16874287 101.81100848 113.16874287 118.13100848 C91.71874287 118.13100848 70.26874287 118.13100848 48.16874287 118.13100848 C48.16874287 97.01100848 48.16874287 75.89100848 48.16874287 54.13100848 C74.89874287 54.13100848 101.62874287 54.13100848 129.16874287 54.13100848 C129.16874287 80.53100848 129.16874287 106.93100848 129.16874287 134.13100848 C97.15874287 134.13100848 65.14874287 134.13100848 32.16874287 134.13100848 C32.16874287 102.45100848 32.16874287 70.77100848 32.16874287 38.13100848 C69.45874287 38.13100848 106.74874287 38.13100848 145.16874287 38.13100848 C145.16874287 75.09100848 145.16874287 112.05100848 145.16874287 150.13100848 C102.59874287 150.13100848 60.02874287 150.13100848 16.16874287 150.13100848 C16.16874287 107.89100848 16.16874287 65.65100848 16.16874287 22.13100848 C64.01874287 22.13100848 111.86874287 22.13100848 161.16874287 22.13100848 C161.16874287 69.65100848 161.16874287 117.17100848 161.16874287 166.13100848 C108.03874287 166.13100848 54.90874287 166.13100848 0.16874287 166.13100848 C0.16874287 113.33100848 0.16874287 60.53100848 0.16874287 6.13100848 C140.74874287 6.13100848 281.32874287 6.13100848 426.16874287 6.13100848 C426.16874287 37.81100848 426.16874287 69.49100848 426.16874287 102.13100848 C355.87874287 102.13100848 285.58874287 102.13100848 213.16874287 102.13100848 C213.16874287 104.11100848 213.16874287 106.09100848 213.16874287 108.13100848 C285.10874287 108.13100848 357.04874287 108.13100848 431.16874287 108.13100848 C431.16874287 72.82100848 431.16874287 37.51100848 431.16874287 1.13100848 C287.61874287 1.13100848 144.06874287 1.13100848 -3.83125713 1.13100848 Z " fill="#272727" transform="translate(10.83125713467598,5.868991523981094)"/>
<path d="M0 0 C1.9140625 1.10546875 1.9140625 1.10546875 4.7890625 3.10546875 C5.3871875 2.63109375 5.9853125 2.15671875 6.6015625 1.66796875 C11.2140236 -1.62664632 16.32987734 -1.50773146 21.7890625 -0.89453125 C26.21391128 1.31789314 28.98382907 4.05346491 31.7890625 8.10546875 C32.94833778 11.58329458 32.90219316 14.29350132 32.88671875 17.9609375 C32.8853038 18.62257401 32.88388885 19.28421051 32.88243103 19.96589661 C32.87684246 22.07496703 32.86429215 24.18393052 32.8515625 26.29296875 C32.84654602 27.72460784 32.84198337 29.1562486 32.83789062 30.58789062 C32.8277285 34.09382414 32.80815111 37.59952702 32.7890625 41.10546875 C26.8490625 41.10546875 20.9090625 41.10546875 14.7890625 41.10546875 C14.4590625 33.18546875 14.1290625 25.26546875 13.7890625 17.10546875 C13.4590625 25.02546875 13.1290625 32.94546875 12.7890625 41.10546875 C7.1790625 41.10546875 1.5690625 41.10546875 -4.2109375 41.10546875 C-4.7059375 29.22546875 -4.7059375 29.22546875 -5.2109375 17.10546875 C-5.5409375 25.02546875 -5.8709375 32.94546875 -6.2109375 41.10546875 C-12.1509375 41.10546875 -18.0909375 41.10546875 -24.2109375 41.10546875 C-24.30335722 37.12115209 -24.3828041 33.1396056 -24.43066406 29.15478516 C-24.46039795 27.14199248 -24.51125479 25.12954741 -24.5625 23.1171875 C-24.63788974 15.61590841 -24.41926649 10.41412952 -20.2109375 4.10546875 C-14.70288347 -1.13389972 -7.24229847 -2.9301879 0 0 Z " fill="#F1F1F1" transform="translate(310.2109375,36.89453125)"/>
<path d="M0 0 C140.58 0 281.16 0 426 0 C426 31.68 426 63.36 426 96 C425.67 96 425.34 96 425 96 C425 64.65 425 33.3 425 1 C285.08 1 145.16 1 1 1 C1 53.14 1 105.28 1 159 C53.14 158.67 105.28 158.34 159 158 C159 111.8 159 65.6 159 18 C112.47 18 65.94 18 18 18 C18 59.25 18 100.5 18 143 C59.58 143 101.16 143 144 143 C144 106.7 144 70.4 144 33 C107.37 33 70.74 33 33 33 C33 64.35 33 95.7 33 128 C32.67 128 32.34 128 32 128 C32 96.32 32 64.64 32 32 C69.29 32 106.58 32 145 32 C145 68.96 145 105.92 145 144 C102.43 144 59.86 144 16 144 C16 101.76 16 59.52 16 16 C63.85 16 111.7 16 161 16 C161 63.52 161 111.04 161 160 C107.87 160 54.74 160 0 160 C0 107.2 0 54.4 0 0 Z " fill="#757575" transform="translate(11,12)"/>
<path d="M0 0 C1.70736328 0.00966797 1.70736328 0.00966797 3.44921875 0.01953125 C6.3125 0.1875 6.3125 0.1875 8.3125 1.1875 C12.6025 1.1875 16.8925 1.1875 21.3125 1.1875 C21.3125 14.7175 21.3125 28.2475 21.3125 42.1875 C16.3625 42.1875 11.4125 42.1875 6.3125 42.1875 C4.3325 42.6825 4.3325 42.6825 2.3125 43.1875 C-3.30096873 43.61930529 -7.74553084 42.80934469 -12.6875 40.1875 C-17.53325913 35.98784209 -21.37716684 31.90641046 -21.92578125 25.33203125 C-22.10046755 17.48953571 -21.77563045 11.55563939 -16.26171875 5.6640625 C-11.17097188 1.11264541 -6.70884528 -0.08414743 0 0 Z M-5.5625 14.6875 C-8.35007079 17.96699504 -8.8381132 19.89502394 -8.6875 24.1875 C-6.83408666 27.29100449 -6.83408666 27.29100449 -3.6875 29.1875 C0.30298721 29.81757693 2.32935857 29.81771887 5.75 27.625 C7.90129747 24.26897594 7.80197291 22.10328329 7.3125 18.1875 C6.41014165 15.70644806 6.41014165 15.70644806 4.3125 14.1875 C0.23214404 12.97850564 -1.75217129 12.69950241 -5.5625 14.6875 Z " fill="#F6F6F6" transform="translate(372.6875,36.8125)"/>
<path d="M0 0 C1.55074219 0.00966797 1.55074219 0.00966797 3.1328125 0.01953125 C5.875 0.1875 5.875 0.1875 8.875 1.1875 C13.165 1.1875 17.455 1.1875 21.875 1.1875 C21.875 14.7175 21.875 28.2475 21.875 42.1875 C16.925 42.1875 11.975 42.1875 6.875 42.1875 C4.895 42.6825 4.895 42.6825 2.875 43.1875 C-2.70163332 43.61647179 -7.29937533 43.02610275 -12.125 40.1875 C-18.37604614 34.74541277 -20.7813375 29.51764744 -21.4375 21.25 C-21.17631155 13.73357679 -18.33368653 8.83073107 -13.0390625 3.6328125 C-8.86823361 0.48341109 -5.14720044 -0.07095138 0 0 Z M-6.125 16.1875 C-7.67086876 19.27923752 -7.41859521 21.78179552 -7.125 25.1875 C-5.70833333 27.77083333 -5.70833333 27.77083333 -3.125 29.1875 C1.30363214 29.91218526 3.15566838 29.68204049 6.875 27.125 C9.18859359 24.28832662 9.18859359 24.28832662 9 20.625 C7.68018229 16.59222367 6.51337312 15.30283321 2.875 13.1875 C-1.41887011 13.1875 -2.71366484 13.79034556 -6.125 16.1875 Z " fill="#EBEBEB" transform="translate(254.125,36.8125)"/>
<path d="M0 0 C5.15085024 2.71038189 7.92633526 6.91572453 9.7265625 12.31640625 C9.81015208 14.5273057 9.83388014 16.74066703 9.82421875 18.953125 C9.82099609 20.25185547 9.81777344 21.55058594 9.81445312 22.88867188 C9.80609781 24.26041733 9.79763287 25.63216212 9.7890625 27.00390625 C9.78404585 28.3873682 9.77948323 29.77083188 9.77539062 31.15429688 C9.76358788 34.54168521 9.74565217 37.92905115 9.7265625 41.31640625 C4.1165625 41.31640625 -1.4934375 41.31640625 -7.2734375 41.31640625 C-7.2734375 33.06640625 -7.2734375 24.81640625 -7.2734375 16.31640625 C-7.9334375 16.64640625 -8.5934375 16.97640625 -9.2734375 17.31640625 C-9.6034375 25.23640625 -9.9334375 33.15640625 -10.2734375 41.31640625 C-13.94330971 42.53969699 -16.61311572 42.19661631 -20.4609375 41.87890625 C-21.73324219 41.77707031 -23.00554687 41.67523438 -24.31640625 41.5703125 C-25.29222656 41.48652344 -26.26804688 41.40273437 -27.2734375 41.31640625 C-27.34799699 37.29631168 -27.40223108 33.27648892 -27.43823242 29.25585938 C-27.45325178 27.89022809 -27.47367358 26.52464449 -27.49975586 25.15917969 C-27.53643887 23.1883672 -27.55162301 21.21719217 -27.56640625 19.24609375 C-27.5821167 18.06257324 -27.59782715 16.87905273 -27.61401367 15.65966797 C-27.1514597 11.11901271 -25.64987124 7.7786755 -22.51953125 4.453125 C-21.92269531 3.97488281 -21.32585937 3.49664062 -20.7109375 3.00390625 C-20.11152344 2.51277344 -19.51210937 2.02164063 -18.89453125 1.515625 C-13.84907838 -2.21679435 -5.82261068 -1.750785 0 0 Z " fill="#F3F3F3" transform="translate(215.2734375,36.68359375)"/>
<path d="M0 0 C0.33 0 0.66 0 1 0 C1 54.45 1 108.9 1 165 C57.1 165 113.2 165 171 165 C171 114.18 171 63.36 171 11 C120.18 11 69.36 11 17 11 C17 56.54 17 102.08 17 149 C62.21 149 107.42 149 154 149 C154 108.74 154 68.48 154 27 C154.33 27 154.66 27 155 27 C155 67.92 155 108.84 155 151 C120.18265655 151.04030303 120.18265655 151.04030303 105.63867188 151.04882812 C95.57999158 151.0547713 85.52131964 151.06177348 75.46264648 151.07543945 C68.13832068 151.08538575 60.81400163 151.0918533 53.48966926 151.09408849 C49.60909213 151.09539569 45.7285343 151.09848212 41.84796333 151.10573006 C38.19960443 151.11248942 34.55127289 151.11461713 30.90290833 151.11310768 C28.91711581 151.11351637 26.9313263 151.118912 24.94554138 151.12442017 C23.7745993 151.1230455 22.60365723 151.12167084 21.39723206 151.12025452 C19.86106405 151.12163721 19.86106405 151.12163721 18.29386234 151.12304783 C16 151 16 151 15 150 C14.90358503 148.19039129 14.87812602 146.37697872 14.87974548 144.56480408 C14.87836799 143.38791236 14.87699049 142.21102064 14.87557125 140.99846554 C14.87916936 139.69049291 14.88276747 138.38252028 14.88647461 137.03491211 C14.88678072 135.63306716 14.88664783 134.23122205 14.88610935 132.82937717 C14.88588286 129.06276484 14.89169415 125.29618403 14.89871979 121.52957916 C14.90439922 117.99990231 14.90468206 114.47023327 14.90539551 110.94055176 C14.91065053 100.60619697 14.92461158 90.27184809 14.9375 79.9375 C14.958125 56.858125 14.97875 33.77875 15 10 C94.2 9.505 94.2 9.505 175 9 C174.67 9.66 174.34 10.32 174 11 C173.34 11 172.68 11 172 11 C172 62.15 172 113.3 172 166 C115.24 166 58.48 166 0 166 C0 111.22 0 56.44 0 0 Z " fill="#3D3D3D" transform="translate(6,12)"/>
<path d="M0 0 C41.25 0 82.5 0 125 0 C125 40.92 125 81.84 125 124 C124.67 124 124.34 124 124 124 C124 83.41 124 42.82 124 1 C83.74 1 43.48 1 2 1 C2 35.98 2 70.96 2 107 C36.98 107 71.96 107 108 107 C108 77.3 108 47.6 108 17 C77.97 17 47.94 17 17 17 C17 41.42 17 65.84 17 91 C41.75 91 66.5 91 92 91 C92 71.86 92 52.72 92 33 C72.53 33 53.06 33 33 33 C33 32.67 33 32.34 33 32 C52.8 32 72.6 32 93 32 C93 52.13 93 72.26 93 93 C74.07309853 93.04010881 74.07309853 93.04010881 66.03320312 93.04882812 C60.53750651 93.05481637 55.04182649 93.06191619 49.54614258 93.07543945 C45.11766312 93.086269 40.68920144 93.09227698 36.26070976 93.09487724 C34.56734372 93.09673137 32.87397871 93.10035175 31.18062019 93.10573006 C28.81708768 93.1129414 26.45362955 93.1139909 24.09008789 93.11352539 C23.38302704 93.11712067 22.67596619 93.12071594 21.94747925 93.12442017 C17.11405216 93.11405216 17.11405216 93.11405216 16 92 C15.90505097 89.62694904 15.87441989 87.28325234 15.88647461 84.90991211 C15.88635407 84.15646546 15.88623354 83.40301882 15.88610935 82.62674046 C15.88685843 80.17691199 15.89448639 77.72715869 15.90234375 75.27734375 C15.90381319 73.76924679 15.90483389 72.26114933 15.90539551 70.75305176 C15.9106482 65.14786008 15.92460929 59.54267931 15.9375 53.9375 C15.958125 41.418125 15.97875 28.89875 16 16 C46.69 16 77.38 16 109 16 C109 46.69 109 77.38 109 109 C82.08698894 109.04010881 82.08698894 109.04010881 70.65820312 109.04882812 C62.84480108 109.0548173 55.03141069 109.06191958 47.21801758 109.07543945 C40.92218841 109.08626585 34.62637174 109.09227631 28.33053398 109.09487724 C25.92265056 109.09673194 23.51476786 109.1003534 21.10688972 109.10573006 C17.74710714 109.1129372 14.3873769 109.11399108 11.02758789 109.11352539 C10.02130341 109.11712067 9.01501892 109.12071594 7.97824097 109.12442017 C7.06813766 109.1230455 6.15803436 109.12167084 5.22035217 109.12025452 C4.42484483 109.12117631 3.62933748 109.1220981 2.80972385 109.12304783 C1 109 1 109 0 108 C-0.0954693 106.59588683 -0.12188529 105.18700191 -0.12025452 103.77964783 C-0.12163201 102.87144507 -0.12300951 101.96324232 -0.12442875 101.02751827 C-0.12083064 100.01933324 -0.11723253 99.0111482 -0.11352539 97.97241211 C-0.11364593 96.90177552 -0.11376646 95.83113894 -0.11389065 94.72805882 C-0.11314115 91.24446637 -0.10551126 87.76092669 -0.09765625 84.27734375 C-0.09618694 82.13383001 -0.09516616 79.99031592 -0.09460449 77.84680176 C-0.08935029 69.87702905 -0.07538923 61.90726401 -0.0625 53.9375 C-0.041875 36.138125 -0.02125 18.33875 0 0 Z " fill="#2C2C2C" transform="translate(37,38)"/>
<path d="M0 0 C1.03863773 6.23182639 0.83288874 11.74692761 0 18 C-1.65 18.33 -3.3 18.66 -5 19 C-5.09796875 19.79664062 -5.1959375 20.59328125 -5.296875 21.4140625 C-6.37734971 29.07052985 -7.66235018 33.98797455 -13.5625 39.3125 C-18.98256434 43.06485224 -24.63032214 42.06849116 -31 42 C-31 36.06 -31 30.12 -31 24 C-29.02 24 -27.04 24 -25 24 C-24.90203125 23.05898438 -24.8040625 22.11796875 -24.703125 21.1484375 C-23.14117647 8.14117647 -23.14117647 8.14117647 -19 4 C-13.04853505 -0.44601164 -7.2074146 -0.47696126 0 0 Z " fill="#EAEAEA" transform="translate(431,37)"/>
<path d="M0 0 C1.17369141 -0.02513672 1.17369141 -0.02513672 2.37109375 -0.05078125 C4.5625 0.3125 4.5625 0.3125 6.359375 1.6171875 C7.5625 3.3125 7.5625 3.3125 7.375 6.75 C6.71293462 9.65290205 6.07719682 11.7880053 4.5625 14.3125 C8.0275 13.8175 8.0275 13.8175 11.5625 13.3125 C11.55089844 13.91578125 11.53929687 14.5190625 11.52734375 15.140625 C11.51832031 15.93984375 11.50929688 16.7390625 11.5 17.5625 C11.48839844 18.35140625 11.47679687 19.1403125 11.46484375 19.953125 C11.55864694 22.21941002 11.93008937 24.1413895 12.5625 26.3125 C11.5725 26.291875 10.5825 26.27125 9.5625 26.25 C6.76336532 26.22733494 4.19197598 26.51822854 1.4375 27 C-2.82464977 27.34372176 -4.19171595 26.98549863 -7.4375 24.3125 C-9.4375 21.3125 -9.4375 21.3125 -9.125 18.25 C-8.4375 15.3125 -8.4375 15.3125 -7.4375 13.3125 C-6.7775 13.3125 -6.1175 13.3125 -5.4375 13.3125 C-5.788125 12.61125 -6.13875 11.91 -6.5 11.1875 C-7.61700029 7.76203246 -7.35855945 5.76647293 -6.4375 2.3125 C-4.02263057 -0.10236943 -3.31042211 0.0163075 0 0 Z M-1.4375 5.3125 C-1.1075 6.3025 -0.7775 7.2925 -0.4375 8.3125 C0.2225 7.9825 0.8825 7.6525 1.5625 7.3125 C1.5625 6.6525 1.5625 5.9925 1.5625 5.3125 C0.5725 5.3125 -0.4175 5.3125 -1.4375 5.3125 Z M-2.4375 16.3125 C-2.7675 17.6325 -3.0975 18.9525 -3.4375 20.3125 C-1.4575 21.3025 -1.4575 21.3025 0.5625 22.3125 C0.5625 20.9925 0.5625 19.6725 0.5625 18.3125 C-0.4275 17.6525 -1.4175 16.9925 -2.4375 16.3125 Z " fill="#353535" transform="translate(332.4375,125.6875)"/>
<path d="M0 0 C2.21758383 2.21758383 1.18530769 7.2728364 1.1875 10.25 C1.19974609 11.10980469 1.21199219 11.96960938 1.22460938 12.85546875 C1.23491441 17.31411398 1.21093944 20.99703596 -1 25 C-3.85833286 27.85833286 -6.01515461 27.80075773 -10 28 C-13.4375 26.5625 -13.4375 26.5625 -16 25 C-16 21 -16 21 -14 19 C-14.4846875 18.44183594 -14.969375 17.88367188 -15.46875 17.30859375 C-18.05050099 13.41620897 -17.72717175 9.50119311 -17 5 C-13.28724052 -1.62992765 -6.78627071 -0.72858735 0 0 Z M-10 5 C-11.89128342 6.89128342 -11.2366852 9.57067726 -11.328125 12.08984375 C-11.21984375 12.72019531 -11.1115625 13.35054687 -11 14 C-9.515 14.99 -9.515 14.99 -8 16 C-7.01 15.34 -6.02 14.68 -5 14 C-4.63702064 12.02252878 -4.63702064 12.02252878 -4.8125 9.875 C-4.874375 8.59625 -4.93625 7.3175 -5 6 C-6.65614657 5.61781233 -8.32457024 5.28604898 -10 5 Z M-11 21 C-11 21.33 -11 21.66 -11 22 C-9.35 22 -7.7 22 -6 22 C-6 21.67 -6 21.34 -6 21 C-7.65 21 -9.3 21 -11 21 Z " fill="#424242" transform="translate(286,132)"/>
<path d="M0 0 C2.0881382 -0.0642909 4.17684606 -0.11026663 6.265625 -0.1484375 C8.01020996 -0.18976807 8.01020996 -0.18976807 9.79003906 -0.23193359 C13.030472 0.00220173 14.31162752 0.32261606 16.75 2.375 C19.94594134 6.10359823 20.17828336 7.96565036 20.25 12.8125 C20.27578125 13.85019531 20.3015625 14.88789063 20.328125 15.95703125 C19.95151852 19.44960798 19.14312477 21.23421061 17 24 C13.81986376 26.24196156 10.63349822 26.40360123 6.8125 26.6875 C5.74644531 26.77386719 4.68039063 26.86023438 3.58203125 26.94921875 C2.72996094 26.96597656 1.87789062 26.98273438 1 27 C0 26 0 26 -0.11352539 23.49975586 C-0.10828857 22.41573486 -0.10305176 21.33171387 -0.09765625 20.21484375 C-0.09443359 19.04501953 -0.09121094 17.87519531 -0.08789062 16.66992188 C-0.07951172 15.43822266 -0.07113281 14.20652344 -0.0625 12.9375 C-0.05798828 11.70193359 -0.05347656 10.46636719 -0.04882812 9.19335938 C-0.03699608 6.12885883 -0.02051173 3.06445279 0 0 Z M6 5 C6 10.28 6 15.56 6 21 C10.66357674 21.46084988 10.66357674 21.46084988 12.7890625 19.8125 C14.38009461 17.43108419 14.40042889 15.84803599 14.375 13 C14.38273438 12.13375 14.39046875 11.2675 14.3984375 10.375 C14.16286072 7.97544143 14.16286072 7.97544143 12.7890625 6.1875 C10.66357674 4.53915012 10.66357674 4.53915012 6 5 Z " fill="#303030" transform="translate(193,126)"/>
<path d="M0 0 C1.31677734 -0.02126953 1.31677734 -0.02126953 2.66015625 -0.04296875 C4.9375 0.1875 4.9375 0.1875 6.9375 2.1875 C2.3175 2.1875 -2.3025 2.1875 -7.0625 2.1875 C-7.3925 3.5075 -7.7225 4.8275 -8.0625 6.1875 C-10 8.4375 -10 8.4375 -12.0625 10.1875 C-12.7225 10.1875 -13.3825 10.1875 -14.0625 10.1875 C-15.09292947 13.63448827 -15.26044703 16.89675282 -15.37890625 20.484375 C-15.42080078 21.68964844 -15.46269531 22.89492188 -15.50585938 24.13671875 C-15.54517578 25.39097656 -15.58449219 26.64523438 -15.625 27.9375 C-15.66818359 29.20722656 -15.71136719 30.47695312 -15.75585938 31.78515625 C-15.86189655 34.9191438 -15.96269848 38.05330768 -16.0625 41.1875 C-11.1125 41.1875 -6.1625 41.1875 -1.0625 41.1875 C-1.0625 33.2675 -1.0625 25.3475 -1.0625 17.1875 C0.5875 16.8575 2.2375 16.5275 3.9375 16.1875 C3.9375 24.4375 3.9375 32.6875 3.9375 41.1875 C8.8875 41.1875 13.8375 41.1875 18.9375 41.1875 C18.9375 32.9375 18.9375 24.6875 18.9375 16.1875 C20.5875 16.1875 22.2375 16.1875 23.9375 16.1875 C23.9375 24.4375 23.9375 32.6875 23.9375 41.1875 C28.8875 41.1875 33.8375 41.1875 38.9375 41.1875 C38.6075 30.9575 38.2775 20.7275 37.9375 10.1875 C37.2775 10.1875 36.6175 10.1875 35.9375 10.1875 C35.504375 9.424375 35.07125 8.66125 34.625 7.875 C32.65395539 4.73592896 31.25729603 3.78695355 27.9375 2.1875 C24.81396211 1.82737667 24.81396211 1.82737667 21.625 2 C20.55636719 2.02707031 19.48773438 2.05414063 18.38671875 2.08203125 C17.57847656 2.11683594 16.77023437 2.15164062 15.9375 2.1875 C20.1969668 -0.65214453 23.93725838 -0.44435581 28.9375 0.1875 C33.36234878 2.39992439 36.13226657 5.13549616 38.9375 9.1875 C40.09677528 12.66532583 40.05063066 15.37553257 40.03515625 19.04296875 C40.0337413 19.70460526 40.03232635 20.36624176 40.03086853 21.04792786 C40.02527996 23.15699828 40.01272965 25.26596177 40 27.375 C39.99498352 28.80663909 39.99042087 30.23827985 39.98632812 31.66992188 C39.976166 35.17585539 39.95658861 38.68155827 39.9375 42.1875 C33.9975 42.1875 28.0575 42.1875 21.9375 42.1875 C21.6075 34.2675 21.2775 26.3475 20.9375 18.1875 C20.6075 26.1075 20.2775 34.0275 19.9375 42.1875 C14.3275 42.1875 8.7175 42.1875 2.9375 42.1875 C2.4425 30.3075 2.4425 30.3075 1.9375 18.1875 C1.6075 26.1075 1.2775 34.0275 0.9375 42.1875 C-5.0025 42.1875 -10.9425 42.1875 -17.0625 42.1875 C-17.15491972 38.20318334 -17.2343666 34.22163685 -17.28222656 30.23681641 C-17.31196045 28.22402373 -17.36281729 26.21157866 -17.4140625 24.19921875 C-17.48945224 16.69793966 -17.27082899 11.49616077 -13.0625 5.1875 C-8.89400362 1.22234491 -5.68256534 0.04184511 0 0 Z " fill="#2B2B2B" transform="translate(303.0625,35.8125)"/>
<path d="M0 0 C2.06132142 -0.10864945 4.12431321 -0.18588321 6.1875 -0.25 C7.33605469 -0.29640625 8.48460937 -0.3428125 9.66796875 -0.390625 C13.64681778 0.07582858 15.18026756 1.22113325 18 4 C20.37634512 8.07373449 20.58813824 12.38537686 20 17 C18.40051561 21.23863363 16.86581764 23.65929052 13 26 C10.01953125 26.546875 10.01953125 26.546875 6.8125 26.75 C5.74644531 26.82734375 4.68039062 26.9046875 3.58203125 26.984375 C2.30392578 26.99210937 2.30392578 26.99210937 1 27 C0 26 0 26 -0.11352539 23.49975586 C-0.10828857 22.41573486 -0.10305176 21.33171387 -0.09765625 20.21484375 C-0.09443359 19.04501953 -0.09121094 17.87519531 -0.08789062 16.66992188 C-0.07951172 15.43822266 -0.07113281 14.20652344 -0.0625 12.9375 C-0.05798828 11.70193359 -0.05347656 10.46636719 -0.04882812 9.19335938 C-0.03699608 6.12885883 -0.02051173 3.06445279 0 0 Z M6 5 C6 10.28 6 15.56 6 21 C10.75011995 21.53130643 10.75011995 21.53130643 12.8125 19.5 C14.49369491 15.96064229 14.71774982 12.849032 14 9 C12.41473019 6.41290128 12.41473019 6.41290128 10 5 C8.68 5 7.36 5 6 5 Z " fill="#3A3A3A" transform="translate(425,126)"/>
<path d="M0 0 C1.67542976 0.28604898 3.34385343 0.61781233 5 1 C5 3.31 5 5.62 5 8 C6.60875 7.87625 6.60875 7.87625 8.25 7.75 C12 8 12 8 14.375 9.875 C17.34240443 13.75545194 17.52228809 17.22610364 17 22 C15.36312815 25.58552881 14.31027417 26.79315055 11 29 C8.08203125 28.9765625 8.08203125 28.9765625 4.8125 28.625 C3.72582031 28.51414063 2.63914062 28.40328125 1.51953125 28.2890625 C0.68808594 28.19367188 -0.14335937 28.09828125 -1 28 C-1.02886338 23.52084672 -1.04675187 19.04171709 -1.0625 14.5625 C-1.07087891 13.28310547 -1.07925781 12.00371094 -1.08789062 10.68554688 C-1.09111328 9.47060547 -1.09433594 8.25566406 -1.09765625 7.00390625 C-1.10289307 5.87799072 -1.10812988 4.7520752 -1.11352539 3.59204102 C-1 1 -1 1 0 0 Z M6 13 C4.76732652 14.00836062 4.76732652 14.00836062 4.90234375 16.06640625 C4.91394531 16.89011719 4.92554688 17.71382812 4.9375 18.5625 C4.94652344 19.38878906 4.95554687 20.21507812 4.96484375 21.06640625 C4.97644531 21.70449219 4.98804688 22.34257812 5 23 C5.99 23.33 6.98 23.66 8 24 C9.62493901 22.87890434 9.62493901 22.87890434 11 21 C11.4167552 17.95788569 11.4167552 17.95788569 11 15 C10.34 14.34 9.68 13.68 9 13 C8.01 13 7.02 13 6 13 Z " fill="#8F8F8F" transform="translate(360,124)"/>
<path d="M0 0 C2.4375 1.5 2.4375 1.5 4 4 C4.60385912 6.70446305 4.81448364 9.21725459 5 12 C1.04 12 -2.92 12 -7 12 C-6.01 12.99 -5.02 13.98 -4 15 C-3.05125 14.649375 -2.1025 14.29875 -1.125 13.9375 C2 13 2 13 4 14 C3.52204176 18.54060325 3.52204176 18.54060325 1.4375 20.375 C-2.22955158 21.31526964 -5.38290887 21.1118108 -9 20 C-11.86278974 17.78133795 -12.79600247 16.18318567 -13.41015625 12.62109375 C-13.66925228 8.16331342 -13.44249005 5.6913907 -11 1.875 C-6.83594076 -0.72753703 -4.86097528 -0.69442504 0 0 Z M-6 5 C-6.33 5.66 -6.66 6.32 -7 7 C-5.35 7 -3.7 7 -2 7 C-2 6.34 -2 5.68 -2 5 C-3.32 5 -4.64 5 -6 5 Z " fill="#303030" transform="translate(230,132)"/>
<path d="M0 0 C1.66611905 -0.042721 3.33382885 -0.04063832 5 0 C6.94090826 1.94090826 6.39919435 5.47293902 6.5625 8.0625 C6.64628906 9.35285156 6.73007812 10.64320313 6.81640625 11.97265625 C6.87699219 12.97167969 6.93757813 13.97070312 7 15 C7.99 14.67 8.98 14.34 10 14 C10.33 9.38 10.66 4.76 11 0 C12.65 0 14.3 0 16 0 C17 1 17 1 17.11352539 2.76586914 C17.10828857 3.51473389 17.10305176 4.26359863 17.09765625 5.03515625 C17.09443359 5.84404297 17.09121094 6.65292969 17.08789062 7.48632812 C17.07951172 8.33646484 17.07113281 9.18660156 17.0625 10.0625 C17.05798828 10.91650391 17.05347656 11.77050781 17.04882812 12.65039062 C17.03700373 14.76695663 17.01906769 16.88348685 17 19 C11.26407835 20.79637691 7.80333113 21.27870008 2 20 C-0.37695562 16.43456658 -0.47219708 13.57523074 -0.6875 9.4375 C-0.73455078 8.75236328 -0.78160156 8.06722656 -0.83007812 7.36132812 C-1.13487347 2.26974693 -1.13487347 2.26974693 0 0 Z " fill="#2A2A2A" transform="translate(381,132)"/>
<path d="M0 0 C2.5 1.1875 2.5 1.1875 4 3 C4.25 5.6875 4.25 5.6875 4 8 C3.01 8.495 3.01 8.495 2 9 C2.515625 9.37125 3.03125 9.7425 3.5625 10.125 C5 12 5 12 5 15 C4 18 4 18 1.8125 19.875 C-1.48331192 21.19332477 -3.48161707 21.51309751 -7 21 C-9.875 19.3125 -9.875 19.3125 -12 17 C-12.3125 14.25 -12.3125 14.25 -12 12 C-11.34 11.67 -10.68 11.34 -10 11 C-10.66 10.01 -11.32 9.02 -12 8 C-11.79874167 5.31655567 -11.29749125 3.50748507 -9.9375 1.1875 C-6.79457186 -0.73881079 -3.53030928 -0.51853637 0 0 Z M-6 5 C-6 5.66 -6 6.32 -6 7 C-3.525 7.495 -3.525 7.495 -1 8 C-1.33 7.01 -1.66 6.02 -2 5 C-3.32 5 -4.64 5 -6 5 Z M-7 12 C-6.34 13.32 -5.68 14.64 -5 16 C-3.68 15.34 -2.36 14.68 -1 14 C-2.98 13.34 -4.96 12.68 -7 12 Z " fill="#545454" transform="translate(250,132)"/>
<path d="M0 0 C1.16273438 -0.02578125 2.32546875 -0.0515625 3.5234375 -0.078125 C6.625 0.25 6.625 0.25 8.30053711 1.51977539 C9.91268105 3.62581486 9.97714632 4.63818 9.91796875 7.26171875 C9.90830078 8.01904297 9.89863281 8.77636719 9.88867188 9.55664062 C9.86353516 10.34232422 9.83839844 11.12800781 9.8125 11.9375 C9.79219727 13.13342773 9.79219727 13.13342773 9.77148438 14.35351562 C9.73617089 16.31929967 9.68236447 18.28473582 9.625 20.25 C7.645 20.25 5.665 20.25 3.625 20.25 C3.625 15.3 3.625 10.35 3.625 5.25 C1.645 6.24 1.645 6.24 -0.375 7.25 C-1.08172206 10.35930941 -1.08172206 10.35930941 -1.125 13.875 C-1.18171875 15.06351563 -1.2384375 16.25203125 -1.296875 17.4765625 C-1.32265625 18.39179688 -1.3484375 19.30703125 -1.375 20.25 C-3.355 20.25 -5.335 20.25 -7.375 20.25 C-7.40388514 17.10418577 -7.42175923 13.95840531 -7.4375 10.8125 C-7.44587891 9.91466797 -7.45425781 9.01683594 -7.46289062 8.09179688 C-7.46611328 7.23779297 -7.46933594 6.38378906 -7.47265625 5.50390625 C-7.48051147 4.31776733 -7.48051147 4.31776733 -7.48852539 3.10766602 C-7.22929492 -1.13423645 -3.44427726 0.04561957 0 0 Z " fill="#BCBCBC" transform="translate(298.375,131.75)"/>
<path d="M0 0 C1.70736328 0.00966797 1.70736328 0.00966797 3.44921875 0.01953125 C6.3125 0.1875 6.3125 0.1875 8.3125 1.1875 C12.6025 1.1875 16.8925 1.1875 21.3125 1.1875 C21.3125 14.7175 21.3125 28.2475 21.3125 42.1875 C16.3625 42.1875 11.4125 42.1875 6.3125 42.1875 C4.3325 42.6825 4.3325 42.6825 2.3125 43.1875 C-3.30096873 43.61930529 -7.74553084 42.80934469 -12.6875 40.1875 C-17.53325913 35.98784209 -21.37716684 31.90641046 -21.92578125 25.33203125 C-22.10046755 17.48953571 -21.77563045 11.55563939 -16.26171875 5.6640625 C-11.17097188 1.11264541 -6.70884528 -0.08414743 0 0 Z M-11.25 4.7734375 C-11.724375 5.36382812 -12.19875 5.95421875 -12.6875 6.5625 C-14.89999755 9.25670588 -17.22142789 11.72142789 -19.6875 14.1875 C-22.06882034 18.95014068 -21.03371899 25.03343671 -19.5625 29.9375 C-16.35358007 35.49962788 -12.90144346 39.2078366 -6.6875 41.1875 C-3.96150569 41.46415227 -3.96150569 41.46415227 -1.1875 41.375 C-0.2696875 41.36855469 0.648125 41.36210938 1.59375 41.35546875 C4.24890105 41.2661254 4.24890105 41.2661254 6.53125 40.67578125 C10.73055032 39.93854454 15.0489755 40.1875 19.3125 40.1875 C19.3125 27.6475 19.3125 15.1075 19.3125 2.1875 C15.0225 2.1875 10.7325 2.1875 6.3125 2.1875 C5.3225 1.8575 4.3325 1.5275 3.3125 1.1875 C1.83663385 1.07062662 0.35543388 1.01248258 -1.125 1 C-2.26775391 0.97873047 -2.26775391 0.97873047 -3.43359375 0.95703125 C-6.80725815 1.30199867 -8.8747375 2.36254607 -11.25 4.7734375 Z " fill="#222222" transform="translate(372.6875,36.8125)"/>
<path d="M0 0 C5.15085024 2.71038189 7.92633526 6.91572453 9.7265625 12.31640625 C9.81015208 14.5273057 9.83388014 16.74066703 9.82421875 18.953125 C9.82099609 20.25185547 9.81777344 21.55058594 9.81445312 22.88867188 C9.80609781 24.26041733 9.79763287 25.63216212 9.7890625 27.00390625 C9.78404585 28.3873682 9.77948323 29.77083188 9.77539062 31.15429688 C9.76358788 34.54168521 9.74565217 37.92905115 9.7265625 41.31640625 C4.1165625 41.31640625 -1.4934375 41.31640625 -7.2734375 41.31640625 C-7.2734375 33.06640625 -7.2734375 24.81640625 -7.2734375 16.31640625 C-7.9334375 16.64640625 -8.5934375 16.97640625 -9.2734375 17.31640625 C-9.6034375 25.23640625 -9.9334375 33.15640625 -10.2734375 41.31640625 C-13.94330971 42.53969699 -16.61311572 42.19661631 -20.4609375 41.87890625 C-21.73324219 41.77707031 -23.00554687 41.67523438 -24.31640625 41.5703125 C-25.29222656 41.48652344 -26.26804688 41.40273437 -27.2734375 41.31640625 C-27.34799699 37.29631168 -27.40223108 33.27648892 -27.43823242 29.25585938 C-27.45325178 27.89022809 -27.47367358 26.52464449 -27.49975586 25.15917969 C-27.53643887 23.1883672 -27.55162301 21.21719217 -27.56640625 19.24609375 C-27.5821167 18.06257324 -27.59782715 16.87905273 -27.61401367 15.65966797 C-27.1514597 11.11901271 -25.64987124 7.7786755 -22.51953125 4.453125 C-21.92269531 3.97488281 -21.32585937 3.49664062 -20.7109375 3.00390625 C-20.11152344 2.51277344 -19.51210937 2.02164063 -18.89453125 1.515625 C-13.84907838 -2.21679435 -5.82261068 -1.750785 0 0 Z M-21.2734375 7.31640625 C-22.16675781 8.10015625 -23.06007812 8.88390625 -23.98046875 9.69140625 C-27.9930682 14.54707845 -26.7865085 21.26684749 -26.5859375 27.19140625 C-26.56337891 28.45210937 -26.54082031 29.7128125 -26.51757812 31.01171875 C-26.45882673 34.1137924 -26.36915211 37.21525301 -26.2734375 40.31640625 C-21.3234375 40.31640625 -16.3734375 40.31640625 -11.2734375 40.31640625 C-11.2734375 32.06640625 -11.2734375 23.81640625 -11.2734375 15.31640625 C-9.6234375 15.31640625 -7.9734375 15.31640625 -6.2734375 15.31640625 C-6.2734375 23.56640625 -6.2734375 31.81640625 -6.2734375 40.31640625 C-1.3234375 40.31640625 3.6265625 40.31640625 8.7265625 40.31640625 C8.83491275 35.98239608 8.91406406 31.65111952 8.9765625 27.31640625 C9.01007813 26.09566406 9.04359375 24.87492187 9.078125 23.6171875 C9.16336646 15.73235208 8.85442923 9.66289487 3.1730957 3.68066406 C-0.87305628 0.02269654 -5.23238523 -0.54919152 -10.55859375 -0.30078125 C-15.33764002 0.78567819 -18.1252537 3.71658427 -21.2734375 7.31640625 Z " fill="#2A2A2A" transform="translate(215.2734375,36.68359375)"/>
<path d="M0 0 C1.65 0.33 3.3 0.66 5 1 C5 9.91 5 18.82 5 28 C3.02 28 1.04 28 -1 28 C-1.02886338 23.52084672 -1.04675187 19.04171709 -1.0625 14.5625 C-1.07087891 13.28310547 -1.07925781 12.00371094 -1.08789062 10.68554688 C-1.09111328 9.47060547 -1.09433594 8.25566406 -1.09765625 7.00390625 C-1.10289307 5.87799072 -1.10812988 4.7520752 -1.11352539 3.59204102 C-1 1 -1 1 0 0 Z " fill="#2B2B2B" transform="translate(414,124)"/>
<path d="M0 0 C11 0 11 0 14.6875 1.8125 C17.9978381 6.37539847 17.8485523 10.52520581 17 16 C15.96875 18.33984375 15.96875 18.33984375 15 20 C14.67 20 14.34 20 14 20 C13.97421875 19.02417969 13.9484375 18.04835937 13.921875 17.04296875 C13.86515625 15.77066406 13.8084375 14.49835938 13.75 13.1875 C13.70359375 11.92292969 13.6571875 10.65835938 13.609375 9.35546875 C13.30188911 6.01201795 13.30188911 6.01201795 11.328125 4.11328125 C8.50964608 2.63335576 8.50964608 2.63335576 3 2 C3 8.6 3 15.2 3 22 C6.3 21.67 9.6 21.34 13 21 C12.34 21.99 11.68 22.98 11 24 C7.37 24 3.74 24 0 24 C0 16.08 0 8.16 0 0 Z " fill="#DADADA" transform="translate(426,127)"/>
<path d="M0 0 C1.051875 0.00644531 2.10375 0.01289062 3.1875 0.01953125 C6 0.1875 6 0.1875 9 1.1875 C13.29 1.1875 17.58 1.1875 22 1.1875 C22 14.7175 22 28.2475 22 42.1875 C17.05 42.1875 12.1 42.1875 7 42.1875 C5.02 42.6825 5.02 42.6825 3 43.1875 C-2.56446307 43.61553562 -7.18986955 43.03794768 -12 40.1875 C-14.69383056 37.77960676 -17.14693807 35.30315666 -19 32.1875 C-18.505 30.7025 -18.505 30.7025 -18 29.1875 C-17.6596875 29.73019531 -17.319375 30.27289063 -16.96875 30.83203125 C-13.88484527 35.38407148 -11.41966573 38.20664532 -6.078125 39.796875 C-0.63577545 40.81987304 4.58854968 40.26979006 10 39.1875 C10 39.8475 10 40.5075 10 41.1875 C13.63 41.1875 17.26 41.1875 21 41.1875 C21 28.3175 21 15.4475 21 2.1875 C13.08 2.6825 13.08 2.6825 5 3.1875 C0.29568848 2.93023296 -4.32522395 2.66228194 -9 2.1875 C-5.52207183 -0.13111878 -4.09700748 -0.05522927 0 0 Z " fill="#292929" transform="translate(254,36.8125)"/>
<path d="M0 0 C11 0 11 0 14.6875 1.75 C18.15188924 6.61887136 17.49864066 11.21022789 17 17 C16.34 17.33 15.68 17.66 15 18 C14.89042969 17.16855469 14.78085938 16.33710938 14.66796875 15.48046875 C14.50941406 14.39378906 14.35085937 13.30710938 14.1875 12.1875 C14.03667969 11.10855469 13.88585937 10.02960938 13.73046875 8.91796875 C12.82006672 5.25218884 12.82006672 5.25218884 10 3 C7.69 2.67 5.38 2.34 3 2 C3 8.6 3 15.2 3 22 C6.3 21.67 9.6 21.34 13 21 C13 20.34 13 19.68 13 19 C13.66 19 14.32 19 15 19 C14 22 14 22 10 24 C6.7 24 3.4 24 0 24 C0 16.08 0 8.16 0 0 Z " fill="#DCDCDC" transform="translate(194,127)"/>
<path d="M0 0 C1.2065625 0.0309375 1.2065625 0.0309375 2.4375 0.0625 C3.5625 3.8125 3.5625 3.8125 2.4375 6.0625 C2.35377341 7.58398326 2.33019973 9.10905778 2.33984375 10.6328125 C2.34306641 11.52871094 2.34628906 12.42460937 2.34960938 13.34765625 C2.35798828 14.28480469 2.36636719 15.22195312 2.375 16.1875 C2.37951172 17.13238281 2.38402344 18.07726562 2.38867188 19.05078125 C2.40047643 21.38808387 2.41694241 23.72526061 2.4375 26.0625 C0.7875 26.0625 -0.8625 26.0625 -2.5625 26.0625 C-4.13402719 22.91944562 -3.70568589 19.571226 -3.6875 16.125 C-3.69136719 15.39603516 -3.69523437 14.66707031 -3.69921875 13.91601562 C-3.6933304 10.70392264 -3.58511853 8.1303556 -2.5625 5.0625 C-2.87728446 3.72466607 -3.20837656 2.39046291 -3.5625 1.0625 C-2.5625 0.0625 -2.5625 0.0625 0 0 Z " fill="#2D2D2D" transform="translate(405.5625,125.9375)"/>
<path d="M0 0 C1.65 0 3.3 0 5 0 C5.68707555 2.49064888 6 4.37886292 6 7 C6.01122483 8.39844155 6.02299729 9.79687876 6.03515625 11.1953125 C6.04444752 12.83854068 6.05355551 14.4817699 6.0625 16.125 C6.07087891 16.96160156 6.07925781 17.79820312 6.08789062 18.66015625 C6.09645411 20.77362322 6.05250577 22.88716799 6 25 C5.67 25.33 5.34 25.66 5 26 C3.35 26 1.7 26 0 26 C0 17.42 0 8.84 0 0 Z " fill="#252525" transform="translate(259,126)"/>
<path d="M0 0 C0 6.93 0 13.86 0 21 C-0.66 21 -1.32 21 -2 21 C-2.66 15.39 -3.32 9.78 -4 4 C-5.98 4 -7.96 4 -10 4 C-11.88059033 5.88059033 -11.12361218 8.49890038 -11.1328125 10.9921875 C-11.07126531 13.20774018 -11.07126531 13.20774018 -10 16 C-8.02 16 -6.04 16 -4 16 C-4.33 16.66 -4.66 17.32 -5 18 C-10.46307885 18.36420526 -10.46307885 18.36420526 -12.67578125 16.86328125 C-14.55700036 14.21625613 -14.39865236 12.21672125 -14.375 9 C-14.38273437 7.948125 -14.39046875 6.89625 -14.3984375 5.8125 C-14 3 -14 3 -12.83203125 1.13671875 C-9.06461654 -1.2008456 -4.26141467 -0.15040287 0 0 Z " fill="#DFDFDF" transform="translate(285,133)"/>
<path d="M0 0 C1.670625 0.061875 1.670625 0.061875 3.375 0.125 C3.705 0.785 4.035 1.445 4.375 2.125 C2.395 2.455 0.415 2.785 -1.625 3.125 C-1.625 4.775 -1.625 6.425 -1.625 8.125 C-0.985625 8.3725 -0.34625 8.62 0.3125 8.875 C2.375 10.125 2.375 10.125 2.875 12.0625 C3.04 12.743125 3.205 13.42375 3.375 14.125 C5.35170607 15.87922772 5.35170607 15.87922772 7.375 17.125 C7.375 15.805 7.375 14.485 7.375 13.125 C8.035 13.125 8.695 13.125 9.375 13.125 C9.34244792 15.11067708 9.30989583 17.09635417 9.27734375 19.08203125 C9.29236783 21.32805461 9.29236783 21.32805461 10.375 24.125 C9.385 24.125 8.395 24.125 7.375 24.125 C7.375 23.465 7.375 22.805 7.375 22.125 C6.385 22.125 5.395 22.125 4.375 22.125 C2.8125 19.75 2.8125 19.75 1.375 17.125 C0.715 16.465 0.055 15.805 -0.625 15.125 C-2.68214832 15.13882865 -2.68214832 15.13882865 -4.625 16.125 C-5.90936734 18.1087767 -5.90936734 18.1087767 -6.625 20.125 C-6.295 17.485 -5.965 14.845 -5.625 12.125 C-4.965 12.125 -4.305 12.125 -3.625 12.125 C-4.12 11.320625 -4.12 11.320625 -4.625 10.5 C-5.87464598 7.5320908 -5.90256584 5.31700721 -5.625 2.125 C-3.625 0.125 -3.625 0.125 0 0 Z " fill="#E3E3E3" transform="translate(332.625,126.875)"/>
<path d="M0 0 C0.99386719 0.00902344 1.98773438 0.01804688 3.01171875 0.02734375 C4.15060547 0.04474609 4.15060547 0.04474609 5.3125 0.0625 C6.35113773 6.29432639 6.14538874 11.80942761 5.3125 18.0625 C3.6625 18.3925 2.0125 18.7225 0.3125 19.0625 C0.21453125 19.85914062 0.1165625 20.65578125 0.015625 21.4765625 C-1.06484971 29.13302985 -2.34985018 34.05047455 -8.25 39.375 C-13.67006434 43.12735224 -19.31782214 42.13099116 -25.6875 42.0625 C-25.6875 36.1225 -25.6875 30.1825 -25.6875 24.0625 C-23.7075 24.0625 -21.7275 24.0625 -19.6875 24.0625 C-19.6875 24.3925 -19.6875 24.7225 -19.6875 25.0625 C-21.3375 25.0625 -22.9875 25.0625 -24.6875 25.0625 C-24.6875 30.3425 -24.6875 35.6225 -24.6875 41.0625 C-22.810625 40.794375 -20.93375 40.52625 -19 40.25 C-17.94425781 40.09917969 -16.88851563 39.94835937 -15.80078125 39.79296875 C-10.99388802 38.66512805 -8.40652891 37.04859679 -5.5 33.0625 C-3.01674688 28.38754979 -2.40057789 23.25107989 -1.6875 18.0625 C0.2925 17.7325 2.2725 17.4025 4.3125 17.0625 C4.3125 11.7825 4.3125 6.5025 4.3125 1.0625 C-0.72136292 1.59639455 -5.70251407 2.16775894 -10.6875 3.0625 C-7.3968001 -0.2281999 -4.43626547 -0.05219136 0 0 Z " fill="#2C2C2C" transform="translate(425.6875,36.9375)"/>
<path d="M0 0 C0.99 0 1.98 0 3 0 C3.33 4.62 3.66 9.24 4 14 C5.98 14 7.96 14 10 14 C10.33 9.38 10.66 4.76 11 0 C11.99 0 12.98 0 14 0 C14 5.94 14 11.88 14 18 C12.4325 18.061875 10.865 18.12375 9.25 18.1875 C7.92742187 18.23970703 7.92742187 18.23970703 6.578125 18.29296875 C3.35685274 17.92691508 2.12186474 17.47550886 0 15 C-0.29642569 12.28770497 -0.38061189 10.00260268 -0.25 7.3125 C-0.23195313 6.61060547 -0.21390625 5.90871094 -0.1953125 5.18554688 C-0.14826213 3.45644564 -0.07651873 1.72804795 0 0 Z " fill="#D2D2D2" transform="translate(382,133)"/>
<path d="M0 0 C2.75 -0.3125 2.75 -0.3125 6 0 C8.375 2.1875 8.375 2.1875 10 5 C10 6.65 10 8.3 10 10 C6.04 10 2.08 10 -2 10 C-1.34 11.32 -0.68 12.64 0 14 C2.97 14 5.94 14 9 14 C8.34 15.32 7.68 16.64 7 18 C-0.24528302 18.60377358 -0.24528302 18.60377358 -3.5 16 C-5.49316478 12.01367043 -5.2996041 9.41916048 -5 5 C-4.01 4.67 -3.02 4.34 -2 4 C-2 5.32 -2 6.64 -2 8 C0.97 8 3.94 8 7 8 C6.37466625 5.47636012 6.37466625 5.47636012 5 3 C2.45224694 2.10613836 2.45224694 2.10613836 0 2 C0 1.34 0 0.68 0 0 Z " fill="#E3E3E3" transform="translate(223,133)"/>
<path d="M0 0 C1.67542976 0.28604898 3.34385343 0.61781233 5 1 C5 3.31 5 5.62 5 8 C6.60875 7.87625 6.60875 7.87625 8.25 7.75 C12 8 12 8 14.375 9.875 C17.34240443 13.75545194 17.52228809 17.22610364 17 22 C15.36312815 25.58552881 14.31027417 26.79315055 11 29 C8.08203125 28.9765625 8.08203125 28.9765625 4.8125 28.625 C3.72582031 28.51414063 2.63914062 28.40328125 1.51953125 28.2890625 C0.68808594 28.19367188 -0.14335937 28.09828125 -1 28 C-1.02886338 23.52084672 -1.04675187 19.04171709 -1.0625 14.5625 C-1.07087891 13.28310547 -1.07925781 12.00371094 -1.08789062 10.68554688 C-1.09111328 9.47060547 -1.09433594 8.25566406 -1.09765625 7.00390625 C-1.10289307 5.87799072 -1.10812988 4.7520752 -1.11352539 3.59204102 C-1 1 -1 1 0 0 Z M0 2 C0 10.25 0 18.5 0 27 C10.36666667 28.1 10.36666667 28.1 15 24 C15.63453497 21.14247192 15.63453497 21.14247192 15.5 18 C15.5103125 16.948125 15.520625 15.89625 15.53125 14.8125 C15.24512416 11.92485986 15.24512416 11.92485986 13.234375 10.10546875 C10.67601812 8.83970827 9.5237388 8.80398122 6.75 9.3125 C5.5125 9.539375 4.275 9.76625 3 10 C3 7.36 3 4.72 3 2 C2.01 2 1.02 2 0 2 Z " fill="#2B2B2B" transform="translate(360,124)"/>
<path d="M0 0 C1.70736328 0.00966797 1.70736328 0.00966797 3.44921875 0.01953125 C6.3125 0.1875 6.3125 0.1875 8.3125 1.1875 C12.2725 1.1875 16.2325 1.1875 20.3125 1.1875 C20.3125 14.0575 20.3125 26.9275 20.3125 40.1875 C19.9825 40.1875 19.6525 40.1875 19.3125 40.1875 C19.3125 27.6475 19.3125 15.1075 19.3125 2.1875 C12.8775 2.6825 12.8775 2.6825 6.3125 3.1875 C5.3225 2.8575 4.3325 2.5275 3.3125 2.1875 C1.83563889 2.09502619 0.35474499 2.05750929 -1.125 2.0625 C-1.88683594 2.05992188 -2.64867187 2.05734375 -3.43359375 2.0546875 C-5.66765156 2.18633042 -7.56872388 2.46720966 -9.6875 3.1875 C-10.120625 4.05375 -10.120625 4.05375 -10.5625 4.9375 C-12.22850513 8.26951026 -14.76666393 9.90162829 -17.6875 12.1875 C-18.0175 10.8675 -18.3475 9.5475 -18.6875 8.1875 C-17.63262267 7.22078244 -16.56816719 6.26451255 -15.5 5.3125 C-14.90832031 4.77882813 -14.31664062 4.24515625 -13.70703125 3.6953125 C-9.28438627 0.39329903 -5.44358019 -0.06827752 0 0 Z " fill="#545454" transform="translate(372.6875,36.8125)"/>
<path d="M0 0 C1.16273438 -0.02578125 2.32546875 -0.0515625 3.5234375 -0.078125 C6.625 0.25 6.625 0.25 8.30053711 1.51977539 C9.91268105 3.62581486 9.97714632 4.63818 9.91796875 7.26171875 C9.90830078 8.01904297 9.89863281 8.77636719 9.88867188 9.55664062 C9.86353516 10.34232422 9.83839844 11.12800781 9.8125 11.9375 C9.79219727 13.13342773 9.79219727 13.13342773 9.77148438 14.35351562 C9.73617089 16.31929967 9.68236447 18.28473582 9.625 20.25 C7.645 20.25 5.665 20.25 3.625 20.25 C3.625 15.3 3.625 10.35 3.625 5.25 C1.645 6.24 1.645 6.24 -0.375 7.25 C-1.08172206 10.35930941 -1.08172206 10.35930941 -1.125 13.875 C-1.18171875 15.06351563 -1.2384375 16.25203125 -1.296875 17.4765625 C-1.32265625 18.39179688 -1.3484375 19.30703125 -1.375 20.25 C-3.355 20.25 -5.335 20.25 -7.375 20.25 C-7.40388514 17.10418577 -7.42175923 13.95840531 -7.4375 10.8125 C-7.44587891 9.91466797 -7.45425781 9.01683594 -7.46289062 8.09179688 C-7.46611328 7.23779297 -7.46933594 6.38378906 -7.47265625 5.50390625 C-7.48051147 4.31776733 -7.48051147 4.31776733 -7.48852539 3.10766602 C-7.22929492 -1.13423645 -3.44427726 0.04561957 0 0 Z M-6.375 1.25 C-6.375 7.19 -6.375 13.13 -6.375 19.25 C-5.055 19.25 -3.735 19.25 -2.375 19.25 C-2.045 14.63 -1.715 10.01 -1.375 5.25 C0.605 4.92 2.585 4.59 4.625 4.25 C4.625 9.2 4.625 14.15 4.625 19.25 C5.945 19.25 7.265 19.25 8.625 19.25 C8.7059723 16.81183415 8.76546972 14.37635616 8.8125 11.9375 C8.83763672 11.24720703 8.86277344 10.55691406 8.88867188 9.84570312 C8.93001181 6.9932478 8.93536756 4.79314323 7.5 2.28125 C4.76252214 0.77563718 2.53495259 0.96258217 -0.5625 1.0625 C-3.4396875 1.1553125 -3.4396875 1.1553125 -6.375 1.25 Z " fill="#1A1A1A" transform="translate(298.375,131.75)"/>
<path d="M0 0 C7 0 7 0 9.3125 1.3125 C12.39408047 6.22020223 13 12.26675441 13 18 C12.01 17.67 11.02 17.34 10 17 C10 17.66 10 18.32 10 19 C8 20 8 20 0 20 C0 13.4 0 6.8 0 0 Z M2 2 C2 7.28 2 12.56 2 18 C6.66357674 18.46084988 6.66357674 18.46084988 8.7890625 16.8125 C10.38009461 14.43108419 10.40042889 12.84803599 10.375 10 C10.38273438 9.13375 10.39046875 8.2675 10.3984375 7.375 C10.16286072 4.97544143 10.16286072 4.97544143 8.7890625 3.1875 C6.66357674 1.53915012 6.66357674 1.53915012 2 2 Z " fill="#5A5A5A" transform="translate(197,129)"/>
<path d="M0 0 C0.99 0 1.98 0 3 0 C3 6.93 3 13.86 3 21 C5.97 21.33 8.94 21.66 12 22 C11.67 22.99 11.34 23.98 11 25 C7.37 25 3.74 25 0 25 C0 16.75 0 8.5 0 0 Z " fill="#D7D7D7" transform="translate(360,126)"/>
<path d="M0 0 C2.91211842 1.34040481 3.85500285 2.41500343 6 5 C6.88053193 9.32261127 6.22737462 12.19060161 4.0625 15.9375 C2.39662756 18.0352653 1.41937566 18.87411147 -1.16015625 19.6484375 C-5.60777035 19.96029024 -7.51659564 19.38475041 -11.0625 16.5625 C-13.35755464 13.20757638 -13.6760017 10.05766265 -13.40625 6.05859375 C-13 4 -13 4 -11.5625 1.4375 C-7.69822402 -0.73026458 -4.31985653 -0.8505417 0 0 Z M-8.875 2.5 C-11.66257079 5.77949504 -12.1506132 7.70752394 -12 12 C-10.14658666 15.10350449 -10.14658666 15.10350449 -7 17 C-3.00951279 17.63007693 -0.98314143 17.63021887 2.4375 15.4375 C4.58879747 12.08147594 4.48947291 9.91578329 4 6 C3.09764165 3.51894806 3.09764165 3.51894806 1 2 C-3.08035596 0.79100564 -5.06467129 0.51200241 -8.875 2.5 Z " fill="#383838" transform="translate(376,49)"/>
<path d="M0 0 C3.0625 1.375 3.0625 1.375 5 4 C5.84859343 8.56118969 5.79409895 12.48399291 3.625 16.625 C-0.52694219 18.79982686 -4.42204003 18.70259483 -9 18 C-12.125 16.5625 -12.125 16.5625 -14 14 C-15.05881796 9.27061311 -14.65705808 6.03857568 -12.0625 1.9375 C-7.91964229 -0.68349161 -4.77365077 -0.88912483 0 0 Z M-11 4 C-12.54586876 7.09173752 -12.29359521 9.59429552 -12 13 C-10.58333333 15.58333333 -10.58333333 15.58333333 -8 17 C-3.57136786 17.72468526 -1.71933162 17.49454049 2 14.9375 C4.31359359 12.10082662 4.31359359 12.10082662 4.125 8.4375 C2.80518229 4.40472367 1.63837312 3.11533321 -2 1 C-6.29387011 1 -7.58866484 1.60284556 -11 4 Z " fill="#393939" transform="translate(259,49)"/>
<path d="M0 0 C1.18851563 0.00902344 2.37703125 0.01804688 3.6015625 0.02734375 C4.51679688 0.03894531 5.43203125 0.05054688 6.375 0.0625 C6.375 0.3925 6.375 0.7225 6.375 1.0625 C5.323125 1.04896484 5.323125 1.04896484 4.25 1.03515625 C-2.4402512 1.2442266 -6.06558794 2.38678888 -10.87109375 7.078125 C-11.44988281 7.73296875 -12.02867187 8.3878125 -12.625 9.0625 C-13.30860596 9.79654053 -13.99221191 10.53058105 -14.6965332 11.28686523 C-17.00273424 14.60617142 -17.15842366 16.45059781 -17.234375 20.45703125 C-17.26660156 21.65908203 -17.29882812 22.86113281 -17.33203125 24.09960938 C-17.34621094 25.34548828 -17.36039063 26.59136719 -17.375 27.875 C-17.40464844 29.14021484 -17.43429688 30.40542969 -17.46484375 31.70898438 C-17.53543777 34.82688676 -17.5881891 37.94404575 -17.625 41.0625 C-17.955 41.0625 -18.285 41.0625 -18.625 41.0625 C-18.71235463 36.52095522 -18.76551247 31.97962768 -18.8125 27.4375 C-18.83763672 26.15230469 -18.86277344 24.86710937 -18.88867188 23.54296875 C-18.89833984 22.29902344 -18.90800781 21.05507813 -18.91796875 19.7734375 C-18.9336792 18.63181152 -18.94938965 17.49018555 -18.96557617 16.31396484 C-18.49545139 11.82570544 -16.96514942 8.48622221 -13.87109375 5.19921875 C-13.27425781 4.72097656 -12.67742187 4.24273437 -12.0625 3.75 C-11.46308594 3.25886719 -10.86367187 2.76773438 -10.24609375 2.26171875 C-6.80528445 -0.28365102 -4.23171573 -0.04148741 0 0 Z " fill="#5F5F5F" transform="translate(206.625,35.9375)"/>
<path d="M0 0 C0.99 0 1.98 0 3 0 C3 8.25 3 16.5 3 25 C2.01 25 1.02 25 0 25 C0 16.75 0 8.5 0 0 Z " fill="#D4D4D4" transform="translate(415,126)"/>
<path d="M0 0 C2.66083654 1.16411598 4.1617024 2.64278148 6 4.875 C6 5.865 6 6.855 6 7.875 C6.99 8.205 7.98 8.535 9 8.875 C6.23952457 9.79515848 4.36637731 10.06767245 1.5 10.125 C0.33984375 10.16367188 0.33984375 10.16367188 -0.84375 10.203125 C-3.53367559 9.7937885 -4.391458 9.03504212 -6 6.875 C-6.1875 4.1875 -6.1875 4.1875 -6 1.875 C-3.86640881 0.57960535 -2.52392246 -0.15774515 0 0 Z M-1 0.875 C-1.33 2.195 -1.66 3.515 -2 4.875 C-0.02 5.865 -0.02 5.865 2 6.875 C2 5.555 2 4.235 2 2.875 C1.01 2.215 0.02 1.555 -1 0.875 Z " fill="#CECECE" transform="translate(331,141.125)"/>
<path d="M0 0 C6.40818182 -0.36272727 6.40818182 -0.36272727 8.9375 1.1875 C10.37794659 3.64473241 10.4305182 5.20163168 10 8 C6.20675288 10.52883142 3.45092058 10.61200158 -1 10 C-3 8.6875 -3 8.6875 -4 7 C-4 6.01 -4 5.02 -4 4 C-2.0625 4.375 -2.0625 4.375 0 5 C0.33 5.66 0.66 6.32 1 7 C2.65 7 4.3 7 6 7 C5.88693303 5.04105639 5.88693303 5.04105639 5 3 C2.50965614 1.70339566 2.50965614 1.70339566 0 1 C0 0.67 0 0.34 0 0 Z " fill="#DADADA" transform="translate(243,141)"/>
<path d="M0 0 C2.64 0 5.28 0 8 0 C8 2.64 8 5.28 8 8 C5.36 8 2.72 8 0 8 C0 5.36 0 2.72 0 0 Z " fill="#6F6F6F" transform="translate(191,107)"/>
<path d="M0 0 C2.64 0 5.28 0 8 0 C8 2.64 8 5.28 8 8 C5.36 8 2.72 8 0 8 C0 5.36 0 2.72 0 0 Z " fill="#707070" transform="translate(101,107)"/>
<path d="M0 0 C0.66 0 1.32 0 2 0 C1.90460938 0.62648437 1.80921875 1.25296875 1.7109375 1.8984375 C1.60007812 2.71570313 1.48921875 3.53296875 1.375 4.375 C1.25898438 5.18710938 1.14296875 5.99921875 1.0234375 6.8359375 C1.01570313 7.55007812 1.00796875 8.26421875 1 9 C2.84991728 11.29274244 2.84991728 11.29274244 5.71484375 11.16015625 C6.77832031 11.12792969 7.84179688 11.09570312 8.9375 11.0625 C12.38352334 10.96619558 14.71486711 10.9049557 18 12 C17.34 11.01 16.68 10.02 16 9 C16 7.68 16 6.36 16 5 C16.66 5 17.32 5 18 5 C19.25664978 7.90600261 20 9.79604584 20 13 C19.01 12.979375 18.02 12.95875 17 12.9375 C14.20086532 12.91483494 11.62947598 13.20572854 8.875 13.6875 C4.61285023 14.03122176 3.24578405 13.67299863 0 11 C-2 8 -2 8 -1.6875 4.9375 C-1 2 -1 2 0 0 Z " fill="#2A2A2A" transform="translate(325,139)"/>
<path d="M0 0 C2.64 0 5.28 0 8 0 C8.04241723 2.33294775 8.04092937 4.66702567 8 7 C7 8 7 8 3.4375 8.0625 C2.303125 8.041875 1.16875 8.02125 0 8 C0 5.36 0 2.72 0 0 Z " fill="#212121" transform="translate(202,107)"/>
<path d="M0 0 C2.64 0 5.28 0 8 0 C8.04241723 2.33294775 8.04092937 4.66702567 8 7 C7 8 7 8 3.4375 8.0625 C2.303125 8.041875 1.16875 8.02125 0 8 C0 5.36 0 2.72 0 0 Z " fill="#2A2A2A" transform="translate(181,107)"/>
<path d="M0 0 C2.64 0 5.28 0 8 0 C8.04241723 2.33294775 8.04092937 4.66702567 8 7 C7 8 7 8 3.4375 8.0625 C2.303125 8.041875 1.16875 8.02125 0 8 C0 5.36 0 2.72 0 0 Z " fill="#282828" transform="translate(80,107)"/>
<path d="M0 0 C2.64 0 5.28 0 8 0 C8 2.64 8 5.28 8 8 C5.66705225 8.04241723 3.33297433 8.04092937 1 8 C0 7 0 7 -0.0625 3.4375 C-0.041875 2.303125 -0.02125 1.16875 0 0 Z " fill="#2B2B2B" transform="translate(90,107)"/>
<path d="M0 0 C1.134375 0.020625 2.26875 0.04125 3.4375 0.0625 C3.4375 2.7025 3.4375 5.3425 3.4375 8.0625 C1.1275 8.0625 -1.1825 8.0625 -3.5625 8.0625 C-3.94313221 5.7364143 -4.27519945 3.40194736 -4.5625 1.0625 C-3.5625 0.0625 -3.5625 0.0625 0 0 Z " fill="#2C2C2C" transform="translate(216.5625,106.9375)"/>
<path d="M0 0 C2.17426923 2.17426923 4.31105613 4.34379888 6.375 6.625 C11.46688348 11.2319422 16.45866734 11.31149203 23 11 C25.84715499 10.56645435 25.84715499 10.56645435 28 10 C26 13 26 13 24.3125 13.6875 C18.02088708 14.53771796 12.51482645 14.2744282 7 11 C4.32904139 8.57185581 1.95997828 6.03796633 0 3 C0 2.01 0 1.02 0 0 Z " fill="#323232" transform="translate(235,66)"/>
<path d="M0 0 C1 2 1 2 0.875 5.875 C0.8653435 8.53053773 0.99758823 9.99397057 2 12.5 C5.30903819 14.98177864 7.94142158 14.45095316 12 14 C12.66 13.01 13.32 12.02 14 11 C12.68 11.33 11.36 11.66 10 12 C10.66 11.01 11.32 10.02 12 9 C13.32 9.33 14.64 9.66 16 10 C15.52204176 14.54060325 15.52204176 14.54060325 13.4375 16.375 C9.77044842 17.31526964 6.61709113 17.1118108 3 16 C0.5 14.0625 0.5 14.0625 -1 11 C-1.36022114 7.63271541 -1.38027841 4.36639907 -1 1 C-0.67 0.67 -0.34 0.34 0 0 Z " fill="#282828" transform="translate(218,136)"/>
<path d="M0 0 C0.99 0 1.98 0 3 0 C3 5.94 3 11.88 3 18 C2.01 18 1.02 18 0 18 C0 12.06 0 6.12 0 0 Z " fill="#CFCFCF" transform="translate(404,133)"/>
<path d="M0 0 C0.99 0 1.98 0 3 0 C3 5.94 3 11.88 3 18 C2.01 18 1.02 18 0 18 C0 12.06 0 6.12 0 0 Z " fill="#D1D1D1" transform="translate(260,133)"/>
<path d="M0 0 C0.33 0 0.66 0 1 0 C1.103125 0.7425 1.20625 1.485 1.3125 2.25 C2.10455981 5.41823924 2.48674992 6.87944524 5 9 C8.02758055 9.33878788 10.96679232 9.22892133 14 9 C13.34 10.32 12.68 11.64 12 13 C4.75471698 13.60377358 4.75471698 13.60377358 1.5 11 C-0.49316478 7.01367043 -0.2996041 4.41916048 0 0 Z " fill="#BFBFBF" transform="translate(218,138)"/>
<path d="M0 0 C1.45922693 0.11409593 2.91740598 0.24165544 4.375 0.375 C5.59316406 0.47941406 5.59316406 0.47941406 6.8359375 0.5859375 C9 1 9 1 11 3 C11 4.32 11 5.64 11 7 C9.54257537 7.08096803 8.08387193 7.13917774 6.625 7.1875 C5.81289062 7.22230469 5.00078125 7.25710937 4.1640625 7.29296875 C3.44992188 7.19628906 2.73578125 7.09960938 2 7 C0 4 0 4 0 0 Z M5 3 C4.67 3.66 4.34 4.32 4 5 C5.65 5 7.3 5 9 5 C9 4.34 9 3.68 9 3 C7.68 3 6.36 3 5 3 Z " fill="#717171" transform="translate(219,134)"/>
<path d="M0 0 C2.47310494 3.70965741 2.55899802 6.69814567 2 11 C0.5 14.5 0.5 14.5 -1 17 C-4 17 -4 17 -7 16 C-6.34 14.35 -5.68 12.7 -5 11 C-4.34 11 -3.68 11 -3 11 C-2.67 11.99 -2.34 12.98 -2 14 C-0.99740493 10.99221479 -0.69685358 8.46179353 -0.4375 5.3125 C-0.35371094 4.31863281 -0.26992188 3.32476562 -0.18359375 2.30078125 C-0.12300781 1.54152344 -0.06242187 0.78226563 0 0 Z " fill="#373737" transform="translate(443,132)"/>
<path d="M0 0 C1.31677734 -0.02126953 1.31677734 -0.02126953 2.66015625 -0.04296875 C4.9375 0.1875 4.9375 0.1875 6.9375 2.1875 C2.3175 2.1875 -2.3025 2.1875 -7.0625 2.1875 C-7.3925 3.5075 -7.7225 4.8275 -8.0625 6.1875 C-10 8.4375 -10 8.4375 -12.0625 10.1875 C-12.7225 10.1875 -13.3825 10.1875 -14.0625 10.1875 C-13.76790991 6.65241897 -13.31368587 5.42546556 -10.6875 2.9375 C-7.0294487 0.49879913 -4.30532768 0.03170344 0 0 Z " fill="#6B6B6B" transform="translate(303.0625,35.8125)"/>
<path d="M0 0 C1.134375 0.020625 2.26875 0.04125 3.4375 0.0625 C3.18188677 2.4056213 2.84479228 4.74093403 2.4375 7.0625 C1.4475 7.5575 1.4475 7.5575 0.4375 8.0625 C-2.1875 7.125 -2.1875 7.125 -4.5625 6.0625 C-4.605221 4.39638095 -4.60313832 2.72867115 -4.5625 1.0625 C-3.5625 0.0625 -3.5625 0.0625 0 0 Z M-3.5625 2.0625 C-3.2325 3.0525 -2.9025 4.0425 -2.5625 5.0625 C-1.9025 4.7325 -1.2425 4.4025 -0.5625 4.0625 C-0.5625 3.4025 -0.5625 2.7425 -0.5625 2.0625 C-1.5525 2.0625 -2.5425 2.0625 -3.5625 2.0625 Z " fill="#D1D1D1" transform="translate(334.5625,128.9375)"/>
<path d="M0 0 C2.46800047 1.15173355 4.04783565 2.04783565 6 4 C6.1953125 6.8203125 6.1953125 6.8203125 6.125 10.125 C6.10695312 11.22070312 6.08890625 12.31640625 6.0703125 13.4453125 C6.04710937 14.28835937 6.02390625 15.13140625 6 16 C5.34 16.33 4.68 16.66 4 17 C3.89042969 16.18015625 3.78085938 15.3603125 3.66796875 14.515625 C3.43013672 12.89914063 3.43013672 12.89914063 3.1875 11.25 C3.03667969 10.18265625 2.88585937 9.1153125 2.73046875 8.015625 C1.98679593 4.94548906 1.07234528 3.33919522 -1 1 C-0.67 0.67 -0.34 0.34 0 0 Z " fill="#F6F6F6" transform="translate(205,128)"/>
<path d="M0 0 C0.33 0 0.66 0 1 0 C1.06058594 0.61488281 1.12117188 1.22976562 1.18359375 1.86328125 C1.26738281 2.67152344 1.35117187 3.47976562 1.4375 4.3125 C1.51871094 5.11300781 1.59992188 5.91351563 1.68359375 6.73828125 C1.95265693 9.16087179 1.95265693 9.16087179 3 12 C4.98 12 6.96 12 9 12 C8.67 12.66 8.34 13.32 8 14 C2.5165801 14.36556133 2.5165801 14.36556133 0.31640625 12.80859375 C-1.44174604 10.39309076 -1.33624674 8.83326303 -1.25 5.875 C-1.23453125 4.98554688 -1.2190625 4.09609375 -1.203125 3.1796875 C-1 1 -1 1 0 0 Z " fill="#E6E6E6" transform="translate(272,137)"/>
<path d="M0 0 C1.670625 0.061875 1.670625 0.061875 3.375 0.125 C3.705 0.785 4.035 1.445 4.375 2.125 C2.395 2.455 0.415 2.785 -1.625 3.125 C-1.625 5.105 -1.625 7.085 -1.625 9.125 C-2.615 9.455 -3.605 9.785 -4.625 10.125 C-6.00625018 7.36249964 -5.81579306 5.17768901 -5.625 2.125 C-3.625 0.125 -3.625 0.125 0 0 Z " fill="#D8D8D8" transform="translate(332.625,126.875)"/>
<path d="M0 0 C1.2065625 0.0309375 1.2065625 0.0309375 2.4375 0.0625 C3.37173645 3.07281744 3.48199911 3.92900268 2.4375 7.0625 C0.7875 7.0625 -0.8625 7.0625 -2.5625 7.0625 C-2.94383299 5.0710944 -3.27575582 3.06970923 -3.5625 1.0625 C-2.5625 0.0625 -2.5625 0.0625 0 0 Z " fill="#474747" transform="translate(405.5625,125.9375)"/>
<path d="M0 0 C1.32 0.66 2.64 1.32 4 2 C4 3.65 4 5.3 4 7 C2.741875 7.185625 1.48375 7.37125 0.1875 7.5625 C-0.87404297 7.71912109 -0.87404297 7.71912109 -1.95703125 7.87890625 C-4 8 -4 8 -7 7 C-7 5.68 -7 4.36 -7 3 C-1.375 2.75 -1.375 2.75 2 5 C1.34 3.35 0.68 1.7 0 0 Z M-6 4 C-6 4.66 -6 5.32 -6 6 C-3.525 6.495 -3.525 6.495 -1 7 C-1.33 6.01 -1.66 5.02 -2 4 C-3.32 4 -4.64 4 -6 4 Z " fill="#353535" transform="translate(250,133)"/>
<path d="M0 0 C0.33 0.66 0.66 1.32 1 2 C-0.051875 1.896875 -1.10375 1.79375 -2.1875 1.6875 C-6.07443377 1.68251548 -6.07443377 1.68251548 -8.9375 4.0625 C-11.45543836 7.64865463 -11.4206933 9.70892835 -11 14 C-11.66 13.67 -12.32 13.34 -13 13 C-13.60882353 5.08529412 -13.60882353 5.08529412 -11.5625 1.4375 C-7.7722199 -0.68875469 -4.25016698 -0.32693592 0 0 Z " fill="#353535" transform="translate(376,49)"/>
<path d="M0 0 C-1.5830577 4.2742558 -4.50568404 6.26531794 -8 9 C-8.8125 7.3125 -8.8125 7.3125 -9 5 C-5.02272727 0 -5.02272727 0 0 0 Z " fill="#939393" transform="translate(363,40)"/>
<path d="M0 0 C0.99 0.495 0.99 0.495 2 1 C3.41933513 5.25800538 3.72651677 9.22911538 2 13.4375 C1.67 13.953125 1.34 14.46875 1 15 C0.67 15 0.34 15 0 15 C0 10.05 0 5.1 0 0 Z " fill="#E3E3E3" transform="translate(440,132)"/>
<path d="M0 0 C1.98 0 3.96 0 6 0 C4.52005046 3.90168516 2.48808251 4.90715049 -1 7 C-2.32793606 9.06700655 -2.32793606 9.06700655 -3 11 C-2.67 8.36 -2.34 5.72 -2 3 C-1.34 3 -0.68 3 0 3 C0 2.01 0 1.02 0 0 Z " fill="#ECECEC" transform="translate(329,136)"/>
<path d="M0 0 C1.59521484 0.00966797 1.59521484 0.00966797 3.22265625 0.01953125 C5.9375 0.1875 5.9375 0.1875 7.9375 1.1875 C7.9375 1.8475 7.9375 2.5075 7.9375 3.1875 C2.3275 2.8575 -3.2825 2.5275 -9.0625 2.1875 C-5.57329626 -0.13863583 -4.11297454 -0.05497293 0 0 Z " fill="#616161" transform="translate(254.0625,36.8125)"/>
<path d="M0 0 C2.40585935 0.32078125 3.83996928 0.88411569 5.8125 2.3125 C7 4 7 4 6.6875 6.1875 C6.460625 6.785625 6.23375 7.38375 6 8 C3.625 8.125 3.625 8.125 1 8 C-1 6 -1 6 -1.1875 3.4375 C-1 1 -1 1 0 0 Z M1 1 C0.67 2.32 0.34 3.64 0 5 C1.98 5.99 1.98 5.99 4 7 C4 5.68 4 4.36 4 3 C3.01 2.34 2.02 1.68 1 1 Z " fill="#393939" transform="translate(329,141)"/>
<path d="M0 0 C1.52519276 0.08937803 3.04681929 0.24537146 4.5625 0.4375 C5.38878906 0.53933594 6.21507812 0.64117187 7.06640625 0.74609375 C7.70449219 0.82988281 8.34257812 0.91367188 9 1 C6.57869669 3.42130331 5.19888623 3.52840504 1.875 4.125 C0.96492188 4.29257813 0.05484375 4.46015625 -0.8828125 4.6328125 C-1.58148438 4.75398437 -2.28015625 4.87515625 -3 5 C-1.125 1.125 -1.125 1.125 0 0 Z " fill="#CBCBCB" transform="translate(274,133)"/>
<path d="M0 0 C1.98 0 3.96 0 6 0 C6 1.65 6 3.3 6 5 C4.02 5 2.04 5 0 5 C0 3.35 0 1.7 0 0 Z " fill="#CCCCCC" transform="translate(203,108)"/>
<path d="M0 0 C1.65 0 3.3 0 5 0 C5.5625 1.9375 5.5625 1.9375 6 4 C5 5 5 5 2.4375 5.0625 C1.2309375 5.0315625 1.2309375 5.0315625 0 5 C0 3.35 0 1.7 0 0 Z " fill="#616161" transform="translate(259,126)"/>
<path d="M0 0 C0.33 0 0.66 0 1 0 C2 6.625 2 6.625 2 10 C1.01 10.495 1.01 10.495 0 11 C0 10.34 0 9.68 0 9 C-1.98 9.33 -3.96 9.66 -6 10 C-6.33 9.34 -6.66 8.68 -7 8 C-5.02 7.67 -3.04 7.34 -1 7 C-0.67 4.69 -0.34 2.38 0 0 Z " fill="#939393" transform="translate(372,139)"/>
<path d="M0 0 C0.56203125 0.31710938 1.1240625 0.63421875 1.703125 0.9609375 C4.15196317 2.06874525 6.08387855 2.38975399 8.75 2.625 C9.54921875 2.69976562 10.3484375 2.77453125 11.171875 2.8515625 C11.77515625 2.90054688 12.3784375 2.94953125 13 3 C12.67 3.66 12.34 4.32 12 5 C10.56344146 5.08131463 9.1255517 5.13933559 7.6875 5.1875 C6.48673828 5.23970703 6.48673828 5.23970703 5.26171875 5.29296875 C3 5 3 5 1.20703125 3.61328125 C0 2 0 2 0 0 Z " fill="#646464" transform="translate(365,63)"/>
<path d="M0 0 C1.65 0 3.3 0 5 0 C5 1.65 5 3.3 5 5 C3.35 5 1.7 5 0 5 C0 3.35 0 1.7 0 0 Z " fill="#DFDFDF" transform="translate(214,108)"/>
<path d="M0 0 C1.65 0 3.3 0 5 0 C5 1.65 5 3.3 5 5 C3.35 5 1.7 5 0 5 C0 3.35 0 1.7 0 0 Z " fill="#DEDEDE" transform="translate(92,108)"/>
<path d="M0 0 C1.65 0 3.3 0 5 0 C5 1.65 5 3.3 5 5 C3.35 5 1.7 5 0 5 C0 3.35 0 1.7 0 0 Z " fill="#E1E1E1" transform="translate(81,108)"/>
<path d="M0 0 C1.65 0 3.3 0 5 0 C5 1.65 5 3.3 5 5 C3.35 5 1.7 5 0 5 C0 3.35 0 1.7 0 0 Z " fill="#E1E1E1" transform="translate(182,108)"/>
<path d="M0 0 C4.95 0.99 4.95 0.99 10 2 C10 2.66 10 3.32 10 4 C7.36 4 4.72 4 2 4 C1.34 2.68 0.68 1.36 0 0 Z " fill="#C9C9C9" transform="translate(271,154)"/>
<path d="M0 0 C5.41139241 -0.36075949 5.41139241 -0.36075949 7.9375 1.1875 C9 3 9 3 8.6875 5.6875 C8.460625 6.450625 8.23375 7.21375 8 8 C7.79375 7.38125 7.5875 6.7625 7.375 6.125 C5.45224112 3.15346355 3.33405473 2.86975341 0 2 C0 1.34 0 0.68 0 0 Z " fill="#DBDBDB" transform="translate(223,133)"/>
<path d="M0 0 C0.66 0 1.32 0 2 0 C1.34 1.32 0.68 2.64 0 4 C-2.64 4 -5.28 4 -8 4 C-8 3.34 -8 2.68 -8 2 C-6.865625 1.855625 -5.73125 1.71125 -4.5625 1.5625 C-1.19222799 1.38828522 -1.19222799 1.38828522 0 0 Z " fill="#D9D9D9" transform="translate(230,147)"/>
<path d="M0 0 C3.375 -0.125 3.375 -0.125 7 0 C9 2 9 2 9 5 C7.68428397 4.7452486 6.37239624 4.47065859 5.0625 4.1875 C4.33160156 4.03667969 3.60070312 3.88585937 2.84765625 3.73046875 C2.23792969 3.48941406 1.62820312 3.24835938 1 3 C0.67 2.01 0.34 1.02 0 0 Z " fill="#C1C1C1" transform="translate(243,133)"/>
<path d="M0 0 C2.0625 0.4375 2.0625 0.4375 4 1 C3.67 2.65 3.34 4.3 3 6 C1.68 6 0.36 6 -1 6 C-1.042721 4.33388095 -1.04063832 2.66617115 -1 1 C-0.67 0.67 -0.34 0.34 0 0 Z M0 2 C0.33 2.99 0.66 3.98 1 5 C1.66 4.67 2.32 4.34 3 4 C3 3.34 3 2.68 3 2 C2.01 2 1.02 2 0 2 Z " fill="#343434" transform="translate(331,129)"/>
<path d="M0 0 C2.62187494 1.04874998 3.79371361 1.64931313 5.25 4.125 C5.4975 4.74375 5.745 5.3625 6 6 C5.01 6.66 4.02 7.32 3 8 C0 3.375 0 3.375 0 0 Z " fill="#D1D1D1" transform="translate(205,128)"/>
<path d="M0 0 C2.31 0.33 4.62 0.66 7 1 C7 1.33 7 1.66 7 2 C5.35 2.33 3.7 2.66 2 3 C1.67 6.3 1.34 9.6 1 13 C0.67 13 0.34 13 0 13 C0 8.71 0 4.42 0 0 Z " fill="#999999" transform="translate(363,134)"/>
<path d="M0 0 C0.94875 0.165 1.8975 0.33 2.875 0.5 C5.80168901 1.0526635 5.80168901 1.0526635 8 1 C7.67 1.99 7.34 2.98 7 4 C4.125 4.125 4.125 4.125 1 4 C0.34 3.34 -0.32 2.68 -1 2 C-0.67 1.34 -0.34 0.68 0 0 Z " fill="#D9D9D9" transform="translate(364,147)"/>
<path d="M0 0 C1.65 1.65 3.3 3.3 5 5 C4.01 5.66 3.02 6.32 2 7 C0.35 5.35 -1.3 3.7 -3 2 C-2.01 2 -1.02 2 0 2 C0 1.34 0 0.68 0 0 Z " fill="#CBCBCB" transform="translate(333,138)"/>
<path d="M0 0 C1.32 0.33 2.64 0.66 4 1 C4.33 2.65 4.66 4.3 5 6 C3.0625 5.25 3.0625 5.25 1 4 C0.25 1.875 0.25 1.875 0 0 Z " fill="#BBBBBB" transform="translate(239,145)"/>
<path d="M0 0 C0.66 0 1.32 0 2 0 C2.33 1.65 2.66 3.3 3 5 C2.01 5.495 2.01 5.495 1 6 C0.01 5.67 -0.98 5.34 -2 5 C-1.34 3.35 -0.68 1.7 0 0 Z " fill="#8C8C8C" transform="translate(438,143)"/>
<path d="M0 0 C0.66 0 1.32 0 2 0 C1 4 1 4 0 8 C-0.66 8 -1.32 8 -2 8 C-1.125 2.25 -1.125 2.25 0 0 Z " fill="#484848" transform="translate(325,139)"/>
<path d="M0 0 C-1.39332574 3.36720387 -2.9789286 4.9859524 -6 7 C-5.37162381 3.35541809 -4.14650034 0 0 0 Z " fill="#D3D3D3" transform="translate(417,40)"/>
<path d="" fill="#000000" transform="translate(0,0)"/>
<path d="" fill="#000000" transform="translate(0,0)"/>
<path d="" fill="#000000" transform="translate(0,0)"/>
<path d="" fill="#000000" transform="translate(0,0)"/>
<path d="" fill="#000000" transform="translate(0,0)"/>
<path d="" fill="#000000" transform="translate(0,0)"/>
<path d="" fill="#000000" transform="translate(0,0)"/>
<path d="" fill="#000000" transform="translate(0,0)"/>
<path d="" fill="#000000" transform="translate(0,0)"/>
<path d="" fill="#000000" transform="translate(0,0)"/>
<path d="" fill="#000000" transform="translate(0,0)"/>
<path d="" fill="#000000" transform="translate(0,0)"/>
<path d="" fill="#000000" transform="translate(0,0)"/>
<path d="" fill="#000000" transform="translate(0,0)"/>
<path d="" fill="#000000" transform="translate(0,0)"/>
<path d="" fill="#000000" transform="translate(0,0)"/>
</svg>
